<?xml version="1.0" encoding="utf-8"?>
<!-- Generator: Adobe Illustrator 16.0.0, SVG Export Plug-In . SVG Version: 6.00 Build 0)  -->
<!DOCTYPE svg PUBLIC "-//W3C//DTD SVG 1.1//EN" "http://www.w3.org/Graphics/SVG/1.1/DTD/svg11.dtd">
<svg version="1.1" id="Layer_1" xmlns="http://www.w3.org/2000/svg" xmlns:xlink="http://www.w3.org/1999/xlink" x="0px" y="0px"
 viewBox="0 0 946 223.489" enable-background="new 0 0 946 223.489" xml:space="preserve">
<g>
	<path d="M530.123,208.925c0-33.501,0-67.001,0-100.504c0-4.469-1.133-6.708-3.398-6.708c-1.238,0-2.336,0.215-3.297,0.646
		c-0.963,0.434-1.658,0.779-2.09,1.042c0,40.031,0,80.06,0,120.088c-14.23,0-28.461,0-42.686,0c0-66.688,0-133.375,0-200.063
		c14.271,4.87,28.545,9.74,42.816,14.611c0.07,12.236,0.135,24.47,0.201,36.703c-0.514-2.72,1.215-5.183,5.186-7.384
		c3.971-2.203,8.938-3.307,14.896-3.307c9.641,0,17.229,2.717,22.758,8.151c5.533,5.434,8.295,14.499,8.295,27.199
		c0,41.361,0,82.727,0,124.088c-14.273-4.87-28.545-9.737-42.816-14.611"/>
	<path d="M415.842,73.983c-0.049-2.242-0.09-4.478-0.143-6.714c-14.166,0-28.338,0-42.504,0c0,52.073,0,104.146,0,156.22
		c14.225,0,28.457,0,42.682,0c0-40.028,0-80.057,0-120.088c0.436-0.263,1.127-0.608,2.094-1.042
		c0.955-0.431,2.059-0.646,3.305-0.646c2.26,0,3.393,2.239,3.393,6.708c0,33.485,0,66.971,0,100.456c0,0,0,0,0.012,0
		c14.219,4.868,28.449,9.741,42.674,14.611c0-41.361,0-82.727,0-124.088c0-12.7-2.768-21.766-8.301-27.199
		c-5.529-5.435-13.115-8.151-22.756-8.151c-5.959,0-10.928,1.104-14.898,3.307C417.805,69.351,415.947,71.564,415.842,73.983z"/>
</g>
</svg>
