<?xml version="1.0" standalone="no"?>
<!DOCTYPE svg PUBLIC "-//W3C//DTD SVG 1.1//EN" "http://www.w3.org/Graphics/SVG/1.1/DTD/svg11.dtd" >
<svg xmlns="http://www.w3.org/2000/svg">
<metadata></metadata>
<defs>
<font id="novaregular" horiz-adv-x="1177" >
<font-face units-per-em="2048" ascent="1638" descent="-410" />
<missing-glyph horiz-adv-x="448" />
<glyph horiz-adv-x="0" />
<glyph horiz-adv-x="682" />
<glyph unicode=" "  horiz-adv-x="448" />
<glyph unicode="&#x09;" horiz-adv-x="448" />
<glyph unicode="&#xa0;" horiz-adv-x="448" />
<glyph unicode="!" horiz-adv-x="268" d="M4 197v213h209v-213h-209zM4 197h209h-209zM4 494v854h209v-854h-209zM4 494h209h-209z" />
<glyph unicode="&#x22;" horiz-adv-x="536" d="M4 977l41 315h205l-154 -315h-92zM45 1292h205h-205zM244 977l35 315h202l-147 -315h-90zM279 1292h202h-202z" />
<glyph unicode="#" horiz-adv-x="1253" d="M-16 432h252l-89 -289h140l88 289h256l-86 -289h139l88 289h275l40 141h-274l96 316h275l43 139h-275l80 268h-139l-80 -268h-258l82 268h-141l-80 -268h-252l-43 -139h252l-94 -316h-252zM418 573l96 316h256l-96 -316h-256zM496 1296h141h-141z" />
<glyph unicode="$" horiz-adv-x="1183" d="M121 485l186 25l6 -27q4 -15 11 -22q21 -37 61 -58l25 244l-43 17q-40 16 -88 51q-64 51 -89 110q-30 67 -24 138q6 101 80 178q68 71 172 86q32 4 51 4l6 61h105l-9 -80q6 -2 18.5 -6.5t18.5 -7.5q96 -52 140 -131l-166 -90q-13 21 -29 35l-21 -203l37 -14 q45 -18 88 -52q66 -51 95 -116q32 -75 26 -148q-9 -108 -86 -188q-71 -77 -184 -92q-7 0 -18.5 -1t-18.5 -1l-6 -50h-107l7 62q-23 6 -60 22q-109 57 -147 140l-25 55q-9 28 -12 59zM354 948q-3 -25 8 -45q8 -17 33 -43q12 -9 33 -18l21 198h-5q-39 -6 -63 -30 q-24 -31 -27 -62zM489 387q38 8 68 35q28 31 31 72q3 36 -8 55q-13 29 -39 49l-29 16zM582 977l166 90z" />
<glyph unicode="%" horiz-adv-x="806" d="M0 1120q0 -84 59 -143t142 -59q84 0 143 59t59 143q0 83 -59 142t-143 59q-83 0 -142 -59t-59 -142zM133 -4l137 -2l381 1431h-137zM139 1120q0 21 19 43q22 19 43 19q24 0 43 -19q18 -18 18 -43q0 -28 -18 -43q-15 -18 -43 -18q-25 0 -43 18q-19 19 -19 43zM379 293 q0 -82 59 -141q60 -60 144 -60q81 0 141 60q59 59 59 141q0 84 -59 143q-60 60 -141 60q-84 0 -144 -60q-59 -59 -59 -143zM514 1425h137h-137zM520 293q0 21 17 45q22 16 45 16q21 0 43 -16q18 -21 18 -45q0 -22 -18 -43q-22 -19 -43 -19q-23 0 -45 19q-17 24 -17 43z" />
<glyph unicode="&#x26;" horiz-adv-x="1071" d="M10 461q6 96 80 188q45 58 184 146q-17 20 -63 90q-33 56 -39 116q-9 69 21 140q36 89 129 141q84 46 188 29q89 -15 156 -82q62 -62 77 -156q17 -96 -26.5 -171t-134.5 -152l127 -162q17 17 57 63q74 82 121 129l147 -147q-17 -17 -55 -61t-55 -62l-82 -90l164 -201 l-162 -135l-156 192q-55 -47 -86 -63l-45 -25q-4 -3 -13.5 -7t-13.5 -7q-114 -75 -249 -51q-140 25 -218 139q-62 90 -53 199zM219 444q-3 -38 19 -63q28 -42 79 -51q47 -8 103 22l41 23q14 6 28 16q25 13 70 49l-8 11q-90 116 -143 180q-129 -84 -156 -115q-30 -39 -33 -72 zM379 1024q2 -14 14 -37q13 -21 58 -74q94 74 86 127q-6 28 -21 43q-21 18 -43 21q-32 6 -55 -8q-22 -9 -33 -35q-6 -14 -6 -37zM438 930q4 -5 13 -17h-2zM844 84l162 135z" />
<glyph unicode="'" horiz-adv-x="270" d="M4 977l41 315h205l-154 -315h-92zM45 1292h205h-205z" />
<glyph unicode="(" horiz-adv-x="315" d="M-10 221v1032q0 111 78 189q80 80 188 80v-211q-22 0 -39 -17q-18 -18 -18 -41v-1032q0 -23 18 -41q16 -16 39 -16v-211q-110 0 -188 78t-78 190z" />
<glyph unicode=")" horiz-adv-x="335" d="M4 -47v211q25 0 41 16t16 41v1032q0 25 -16 41q-17 17 -41 17v211q109 0 189 -80q79 -79 79 -189v-1032q0 -111 -79 -190q-78 -78 -189 -78z" />
<glyph unicode="*" horiz-adv-x="616" d="M63 1112l134 -43l-84 -115l114 -82l82 113l82 -113l113 82l-82 115l133 43l-43 133l-133 -43v139h-139v-141l-134 43zM240 1341h139h-139z" />
<glyph unicode="," horiz-adv-x="317" d="M0 -33q51 94 51 250v10q0 43 31.5 75t75.5 32q43 0 74.5 -32t31.5 -75q0 -21 -6 -39q-12 -42 -63.5 -113.5t-94.5 -107.5h-100z" />
<glyph unicode="-" horiz-adv-x="741" d="M0 403v185h659v-185h-659z" />
<glyph unicode="." horiz-adv-x="264" d="M4 227q0 43 31.5 75t75.5 32q43 0 74.5 -32t31.5 -75q0 -44 -31.5 -75t-74.5 -31q-44 0 -75.5 31t-31.5 75z" />
<glyph unicode="/" horiz-adv-x="573" d="M10 -4l137 -2l381 1431h-137zM391 1425h137h-137z" />
<glyph unicode="0" horiz-adv-x="2906" d="M0 469l18 29h76q90 0 90 -97q0 -49 -34 -67q43 -15 43 -82q0 -98 -80 -98h-95v292zM18 2v72h19v-27h53v27h14v-72h-14v31h-53v-31h-19zM74 205h20q41 0 41 49q0 53 -41 53h-20v-102zM74 356h20q37 0 37 45t-37 45h-20v-90zM129 61v13h84v-13h-33v-59h-18v59h-33zM221 61 v13h84v-13h-37v-59h-14v59h-33zM236 154v344h53v-344l-27 -19zM326 2v72h63q19 0 19 -15v-16q0 -12 -19 -12h-45v-29h-18zM336 154v344l22 20l29 -20v-293h90v-51h-141zM344 43h37q8 0 8 6v8q0 4 -8 4h-37v-18zM430 6v23h27v-27h-25zM430 49v23q2 2 8 2h13q4 0 6 -2v-23h-27 zM467 0l43 92h10l-43 -92h-10zM512 0l43 92h10l-43 -92h-10zM512 154v344l23 20l28 -20v-293h90v-51h-141zM580 2v72h63q14 0 14 -15v-8q0 -9 -12 -12q12 -3 12 -12v-11q0 -14 -20 -14h-57zM594 16h41q8 0 8 4v9q0 4 -8 4h-41v-17zM594 47h41q8 0 8 4v6q0 4 -8 4h-41v-14z M625 498h57l37 -123l39 123h57l-70 -201v-143h-51v143zM688 2v72h17v-72h-17zM702 1497l533 59l225 492l217 -489l537 -62l-395 -358l108 -529l-465 267l-471 -267l111 523zM737 2v72h17v-58h55v-14h-72zM827 2v72h19v-58h55v-14h-74zM887 154l55 344h72l59 -344l-29 -15 l-28 15l-10 79h-54l-12 -79l-29 -15zM891 74h22l25 -27l25 27h20l-39 -37v-35h-14v31zM961 285h38l-20 133zM981 2l41 72h18l41 -72h-18l-10 16h-47l-7 -16h-18zM1014 31h33l-17 30zM1098 2v72h65q15 0 15 -15v-16q0 -14 -15 -14h-10l33 -27h-23l-30 27h-17v-27h-18z M1098 471l18 27h80q82 0 82 -82v-49q0 -39 -29 -62l39 -151h-57l-31 131h-33v-131h-51v295zM1116 41h39q8 0 8 6v10q0 4 -8 4h-39v-20zM1167 336h31q29 0 29 29v51q0 26 -29 26h-31v-106zM1206 20v37q0 17 19 17h51q16 0 16 -17l-16 -4v6h-55v-43h55v15h-29v12h45v-23 q0 -18 -16 -18h-51q-19 0 -19 18zM1255 909l58 -37l57 37l29 168h114l25 -168l61 -37l58 37l-123 740h-154zM1321 2v72h78v-13h-60v-14h33v-14h-33v-17h60v-14h-78zM1323 231v187q0 84 82 84t82 -84v-39h-53v41q0 31 -29 31q-31 0 -31 -31v-187q0 -30 31 -30q29 0 29 30v66 h-29l-21 25l21 26h82v-119q0 -81 -82 -81t-82 81zM1413 1188l41 293l43 -293h-84zM1423 2v72h19v-58h53v-14h-72zM1513 8v15q0 3 3 6h22v-27h-20q-5 0 -5 6zM1516 471l18 27h145v-52h-94v-96h70v-51h-70v-94h94v-51h-145v292zM1569 2v72h65q15 0 15 -15v-8q0 -8 -11 -12 q13 -3 13 -12v-11q0 -14 -23 -14h-59zM1587 16h39q8 0 8 4v9q0 4 -8 4h-39v-17zM1587 47h39q8 0 8 4v6q0 4 -8 4h-39v-14zM1679 2v72h19v-58h53v-14h-72zM1716 154v344l25 20l26 -20v-293h88v-51h-139zM1769 20v37q0 17 19 17h55q19 0 19 -17v-37q0 -18 -19 -18h-55 q-19 0 -19 18zM1788 16h55v43h-55v-43zM1890 20v37q0 17 17 17h51q18 0 18 -17l-18 -4v6h-53v-43h53v15h-27v12h45v-23q0 -18 -18 -18h-51q-17 0 -17 18zM1911 471l16 27h148v-52h-97v-96h70v-51h-70v-145h-51v292zM2005 20l12 3v-7h54v15h-46q-18 0 -18 18v8q0 17 18 17h41 q19 0 19 -15v-2l-14 -4v8h-48v-14h45q19 0 19 -18v-9q0 -18 -19 -18h-45q-18 0 -18 18zM2109 233v187q0 82 82 82t82 -82v-187q0 -81 -82 -81t-82 81zM2116 2v72h63q19 0 19 -15v-16q0 -12 -19 -12h-47v-29h-16zM2132 43h39q8 0 8 6v8q0 4 -8 4h-39v-18zM2161 233 q0 -30 30 -30q29 0 29 30v187q0 31 -29 31q-30 0 -30 -31v-187zM2220 20v37q0 17 18 17h54q18 0 18 -17v-37q0 -18 -18 -18h-54q-18 0 -18 18zM2234 16h58v43h-58v-43zM2302 471l18 27h58l67 -232v232h54v-344h-56l-71 221v-221h-52v295zM2331 61v13h84v-13h-33v-59h-19v59 h-32zM2437 6v23h23q4 -4 4 -6v-15q0 -2 -4 -6h-21q-2 0 -2 4zM2490 20v37q0 17 19 17h43q18 0 18 -17v-8l-14 -2v12h-47v-43h47v15l14 -2v-9q0 -18 -18 -18h-43q-19 0 -19 18zM2540 446v52h161v-52h-57v-292l-25 -19l-26 19v292h-53zM2599 20v37q0 17 18 17h54q18 0 18 -17 v-37q0 -18 -18 -18h-54q-18 0 -18 18zM2613 16h60v43h-60v-43zM2720 2v72h12l35 -43l35 43h12v-72h-16v49l-31 -41h-2l-33 41v-49h-12zM2736 248l21 18l28 -14q3 -55 37 -55q33 6 33 41q0 26 -41 67q-26 24 -59 60q-13 33 -13 51q0 86 80 86q76 0 82 -80l-49 -10 q-3 45 -33 45q-26 0 -26 -39q0 -25 67 -92q43 -43 43 -84q3 -90 -82 -90q-82 0 -88 96zM2826 0l43 92h10l-43 -92h-10z" />
<glyph unicode="1" horiz-adv-x="2906" d="M0 469l18 29h76q90 0 90 -97q0 -49 -34 -67q43 -15 43 -82q0 -98 -80 -98h-95v292zM18 2v72h19v-27h53v27h14v-72h-14v31h-53v-31h-19zM74 205h20q41 0 41 49q0 53 -41 53h-20v-102zM74 356h20q37 0 37 45t-37 45h-20v-90zM129 61v13h84v-13h-33v-59h-18v59h-33zM221 61 v13h84v-13h-37v-59h-14v59h-33zM236 154v344h53v-344l-27 -19zM326 2v72h63q19 0 19 -15v-16q0 -12 -19 -12h-45v-29h-18zM336 154v344l22 20l29 -20v-293h90v-51h-141zM344 43h37q8 0 8 6v8q0 4 -8 4h-37v-18zM430 6v23h27v-27h-25zM430 49v23q2 2 8 2h13q4 0 6 -2v-23h-27 zM467 0l43 92h10l-43 -92h-10zM512 0l43 92h10l-43 -92h-10zM512 154v344l23 20l28 -20v-293h90v-51h-141zM580 2v72h63q14 0 14 -15v-8q0 -9 -12 -12q12 -3 12 -12v-11q0 -14 -20 -14h-57zM594 16h41q8 0 8 4v9q0 4 -8 4h-41v-17zM594 47h41q8 0 8 4v6q0 4 -8 4h-41v-14z M625 498h57l37 -123l39 123h57l-70 -201v-143h-51v143zM688 2v72h17v-72h-17zM702 1497l533 59l225 492l217 -489l537 -62l-395 -358l108 -529l-465 267l-471 -267l111 523zM737 2v72h17v-58h55v-14h-72zM827 2v72h19v-58h55v-14h-74zM887 154l55 344h72l59 -344l-29 -15 l-28 15l-10 79h-54l-12 -79l-29 -15zM891 74h22l25 -27l25 27h20l-39 -37v-35h-14v31zM961 285h38l-20 133zM981 2l41 72h18l41 -72h-18l-10 16h-47l-7 -16h-18zM1014 31h33l-17 30zM1098 2v72h65q15 0 15 -15v-16q0 -14 -15 -14h-10l33 -27h-23l-30 27h-17v-27h-18z M1098 471l18 27h80q82 0 82 -82v-49q0 -39 -29 -62l39 -151h-57l-31 131h-33v-131h-51v295zM1116 41h39q8 0 8 6v10q0 4 -8 4h-39v-20zM1167 336h31q29 0 29 29v51q0 26 -29 26h-31v-106zM1206 20v37q0 17 19 17h51q16 0 16 -17l-16 -4v6h-55v-43h55v15h-29v12h45v-23 q0 -18 -16 -18h-51q-19 0 -19 18zM1255 909l58 -37l57 37l29 168h114l25 -168l61 -37l58 37l-123 740h-154zM1321 2v72h78v-13h-60v-14h33v-14h-33v-17h60v-14h-78zM1323 231v187q0 84 82 84t82 -84v-39h-53v41q0 31 -29 31q-31 0 -31 -31v-187q0 -30 31 -30q29 0 29 30v66 h-29l-21 25l21 26h82v-119q0 -81 -82 -81t-82 81zM1413 1188l41 293l43 -293h-84zM1423 2v72h19v-58h53v-14h-72zM1513 8v15q0 3 3 6h22v-27h-20q-5 0 -5 6zM1516 471l18 27h145v-52h-94v-96h70v-51h-70v-94h94v-51h-145v292zM1569 2v72h65q15 0 15 -15v-8q0 -8 -11 -12 q13 -3 13 -12v-11q0 -14 -23 -14h-59zM1587 16h39q8 0 8 4v9q0 4 -8 4h-39v-17zM1587 47h39q8 0 8 4v6q0 4 -8 4h-39v-14zM1679 2v72h19v-58h53v-14h-72zM1716 154v344l25 20l26 -20v-293h88v-51h-139zM1769 20v37q0 17 19 17h55q19 0 19 -17v-37q0 -18 -19 -18h-55 q-19 0 -19 18zM1788 16h55v43h-55v-43zM1890 20v37q0 17 17 17h51q18 0 18 -17l-18 -4v6h-53v-43h53v15h-27v12h45v-23q0 -18 -18 -18h-51q-17 0 -17 18zM1911 471l16 27h148v-52h-97v-96h70v-51h-70v-145h-51v292zM2005 20l12 3v-7h54v15h-46q-18 0 -18 18v8q0 17 18 17h41 q19 0 19 -15v-2l-14 -4v8h-48v-14h45q19 0 19 -18v-9q0 -18 -19 -18h-45q-18 0 -18 18zM2109 233v187q0 82 82 82t82 -82v-187q0 -81 -82 -81t-82 81zM2116 2v72h63q19 0 19 -15v-16q0 -12 -19 -12h-47v-29h-16zM2132 43h39q8 0 8 6v8q0 4 -8 4h-39v-18zM2161 233 q0 -30 30 -30q29 0 29 30v187q0 31 -29 31q-30 0 -30 -31v-187zM2220 20v37q0 17 18 17h54q18 0 18 -17v-37q0 -18 -18 -18h-54q-18 0 -18 18zM2234 16h58v43h-58v-43zM2302 471l18 27h58l67 -232v232h54v-344h-56l-71 221v-221h-52v295zM2331 61v13h84v-13h-33v-59h-19v59 h-32zM2437 6v23h23q4 -4 4 -6v-15q0 -2 -4 -6h-21q-2 0 -2 4zM2490 20v37q0 17 19 17h43q18 0 18 -17v-8l-14 -2v12h-47v-43h47v15l14 -2v-9q0 -18 -18 -18h-43q-19 0 -19 18zM2540 446v52h161v-52h-57v-292l-25 -19l-26 19v292h-53zM2599 20v37q0 17 18 17h54q18 0 18 -17 v-37q0 -18 -18 -18h-54q-18 0 -18 18zM2613 16h60v43h-60v-43zM2720 2v72h12l35 -43l35 43h12v-72h-16v49l-31 -41h-2l-33 41v-49h-12zM2736 248l21 18l28 -14q3 -55 37 -55q33 6 33 41q0 26 -41 67q-26 24 -59 60q-13 33 -13 51q0 86 80 86q76 0 82 -80l-49 -10 q-3 45 -33 45q-26 0 -26 -39q0 -25 67 -92q43 -43 43 -84q3 -90 -82 -90q-82 0 -88 96zM2826 0l43 92h10l-43 -92h-10z" />
<glyph unicode="2" horiz-adv-x="2906" d="M0 469l18 29h76q90 0 90 -97q0 -49 -34 -67q43 -15 43 -82q0 -98 -80 -98h-95v292zM18 2v72h19v-27h53v27h14v-72h-14v31h-53v-31h-19zM74 205h20q41 0 41 49q0 53 -41 53h-20v-102zM74 356h20q37 0 37 45t-37 45h-20v-90zM129 61v13h84v-13h-33v-59h-18v59h-33zM221 61 v13h84v-13h-37v-59h-14v59h-33zM236 154v344h53v-344l-27 -19zM326 2v72h63q19 0 19 -15v-16q0 -12 -19 -12h-45v-29h-18zM336 154v344l22 20l29 -20v-293h90v-51h-141zM344 43h37q8 0 8 6v8q0 4 -8 4h-37v-18zM430 6v23h27v-27h-25zM430 49v23q2 2 8 2h13q4 0 6 -2v-23h-27 zM467 0l43 92h10l-43 -92h-10zM512 0l43 92h10l-43 -92h-10zM512 154v344l23 20l28 -20v-293h90v-51h-141zM580 2v72h63q14 0 14 -15v-8q0 -9 -12 -12q12 -3 12 -12v-11q0 -14 -20 -14h-57zM594 16h41q8 0 8 4v9q0 4 -8 4h-41v-17zM594 47h41q8 0 8 4v6q0 4 -8 4h-41v-14z M625 498h57l37 -123l39 123h57l-70 -201v-143h-51v143zM688 2v72h17v-72h-17zM702 1497l533 59l225 492l217 -489l537 -62l-395 -358l108 -529l-465 267l-471 -267l111 523zM737 2v72h17v-58h55v-14h-72zM827 2v72h19v-58h55v-14h-74zM887 154l55 344h72l59 -344l-29 -15 l-28 15l-10 79h-54l-12 -79l-29 -15zM891 74h22l25 -27l25 27h20l-39 -37v-35h-14v31zM961 285h38l-20 133zM981 2l41 72h18l41 -72h-18l-10 16h-47l-7 -16h-18zM1014 31h33l-17 30zM1098 2v72h65q15 0 15 -15v-16q0 -14 -15 -14h-10l33 -27h-23l-30 27h-17v-27h-18z M1098 471l18 27h80q82 0 82 -82v-49q0 -39 -29 -62l39 -151h-57l-31 131h-33v-131h-51v295zM1116 41h39q8 0 8 6v10q0 4 -8 4h-39v-20zM1167 336h31q29 0 29 29v51q0 26 -29 26h-31v-106zM1206 20v37q0 17 19 17h51q16 0 16 -17l-16 -4v6h-55v-43h55v15h-29v12h45v-23 q0 -18 -16 -18h-51q-19 0 -19 18zM1255 909l58 -37l57 37l29 168h114l25 -168l61 -37l58 37l-123 740h-154zM1321 2v72h78v-13h-60v-14h33v-14h-33v-17h60v-14h-78zM1323 231v187q0 84 82 84t82 -84v-39h-53v41q0 31 -29 31q-31 0 -31 -31v-187q0 -30 31 -30q29 0 29 30v66 h-29l-21 25l21 26h82v-119q0 -81 -82 -81t-82 81zM1413 1188l41 293l43 -293h-84zM1423 2v72h19v-58h53v-14h-72zM1513 8v15q0 3 3 6h22v-27h-20q-5 0 -5 6zM1516 471l18 27h145v-52h-94v-96h70v-51h-70v-94h94v-51h-145v292zM1569 2v72h65q15 0 15 -15v-8q0 -8 -11 -12 q13 -3 13 -12v-11q0 -14 -23 -14h-59zM1587 16h39q8 0 8 4v9q0 4 -8 4h-39v-17zM1587 47h39q8 0 8 4v6q0 4 -8 4h-39v-14zM1679 2v72h19v-58h53v-14h-72zM1716 154v344l25 20l26 -20v-293h88v-51h-139zM1769 20v37q0 17 19 17h55q19 0 19 -17v-37q0 -18 -19 -18h-55 q-19 0 -19 18zM1788 16h55v43h-55v-43zM1890 20v37q0 17 17 17h51q18 0 18 -17l-18 -4v6h-53v-43h53v15h-27v12h45v-23q0 -18 -18 -18h-51q-17 0 -17 18zM1911 471l16 27h148v-52h-97v-96h70v-51h-70v-145h-51v292zM2005 20l12 3v-7h54v15h-46q-18 0 -18 18v8q0 17 18 17h41 q19 0 19 -15v-2l-14 -4v8h-48v-14h45q19 0 19 -18v-9q0 -18 -19 -18h-45q-18 0 -18 18zM2109 233v187q0 82 82 82t82 -82v-187q0 -81 -82 -81t-82 81zM2116 2v72h63q19 0 19 -15v-16q0 -12 -19 -12h-47v-29h-16zM2132 43h39q8 0 8 6v8q0 4 -8 4h-39v-18zM2161 233 q0 -30 30 -30q29 0 29 30v187q0 31 -29 31q-30 0 -30 -31v-187zM2220 20v37q0 17 18 17h54q18 0 18 -17v-37q0 -18 -18 -18h-54q-18 0 -18 18zM2234 16h58v43h-58v-43zM2302 471l18 27h58l67 -232v232h54v-344h-56l-71 221v-221h-52v295zM2331 61v13h84v-13h-33v-59h-19v59 h-32zM2437 6v23h23q4 -4 4 -6v-15q0 -2 -4 -6h-21q-2 0 -2 4zM2490 20v37q0 17 19 17h43q18 0 18 -17v-8l-14 -2v12h-47v-43h47v15l14 -2v-9q0 -18 -18 -18h-43q-19 0 -19 18zM2540 446v52h161v-52h-57v-292l-25 -19l-26 19v292h-53zM2599 20v37q0 17 18 17h54q18 0 18 -17 v-37q0 -18 -18 -18h-54q-18 0 -18 18zM2613 16h60v43h-60v-43zM2720 2v72h12l35 -43l35 43h12v-72h-16v49l-31 -41h-2l-33 41v-49h-12zM2736 248l21 18l28 -14q3 -55 37 -55q33 6 33 41q0 26 -41 67q-26 24 -59 60q-13 33 -13 51q0 86 80 86q76 0 82 -80l-49 -10 q-3 45 -33 45q-26 0 -26 -39q0 -25 67 -92q43 -43 43 -84q3 -90 -82 -90q-82 0 -88 96zM2826 0l43 92h10l-43 -92h-10z" />
<glyph unicode="3" horiz-adv-x="2906" d="M0 469l18 29h76q90 0 90 -97q0 -49 -34 -67q43 -15 43 -82q0 -98 -80 -98h-95v292zM18 2v72h19v-27h53v27h14v-72h-14v31h-53v-31h-19zM74 205h20q41 0 41 49q0 53 -41 53h-20v-102zM74 356h20q37 0 37 45t-37 45h-20v-90zM129 61v13h84v-13h-33v-59h-18v59h-33zM221 61 v13h84v-13h-37v-59h-14v59h-33zM236 154v344h53v-344l-27 -19zM326 2v72h63q19 0 19 -15v-16q0 -12 -19 -12h-45v-29h-18zM336 154v344l22 20l29 -20v-293h90v-51h-141zM344 43h37q8 0 8 6v8q0 4 -8 4h-37v-18zM430 6v23h27v-27h-25zM430 49v23q2 2 8 2h13q4 0 6 -2v-23h-27 zM467 0l43 92h10l-43 -92h-10zM512 0l43 92h10l-43 -92h-10zM512 154v344l23 20l28 -20v-293h90v-51h-141zM580 2v72h63q14 0 14 -15v-8q0 -9 -12 -12q12 -3 12 -12v-11q0 -14 -20 -14h-57zM594 16h41q8 0 8 4v9q0 4 -8 4h-41v-17zM594 47h41q8 0 8 4v6q0 4 -8 4h-41v-14z M625 498h57l37 -123l39 123h57l-70 -201v-143h-51v143zM688 2v72h17v-72h-17zM702 1497l533 59l225 492l217 -489l537 -62l-395 -358l108 -529l-465 267l-471 -267l111 523zM737 2v72h17v-58h55v-14h-72zM827 2v72h19v-58h55v-14h-74zM887 154l55 344h72l59 -344l-29 -15 l-28 15l-10 79h-54l-12 -79l-29 -15zM891 74h22l25 -27l25 27h20l-39 -37v-35h-14v31zM961 285h38l-20 133zM981 2l41 72h18l41 -72h-18l-10 16h-47l-7 -16h-18zM1014 31h33l-17 30zM1098 2v72h65q15 0 15 -15v-16q0 -14 -15 -14h-10l33 -27h-23l-30 27h-17v-27h-18z M1098 471l18 27h80q82 0 82 -82v-49q0 -39 -29 -62l39 -151h-57l-31 131h-33v-131h-51v295zM1116 41h39q8 0 8 6v10q0 4 -8 4h-39v-20zM1167 336h31q29 0 29 29v51q0 26 -29 26h-31v-106zM1206 20v37q0 17 19 17h51q16 0 16 -17l-16 -4v6h-55v-43h55v15h-29v12h45v-23 q0 -18 -16 -18h-51q-19 0 -19 18zM1255 909l58 -37l57 37l29 168h114l25 -168l61 -37l58 37l-123 740h-154zM1321 2v72h78v-13h-60v-14h33v-14h-33v-17h60v-14h-78zM1323 231v187q0 84 82 84t82 -84v-39h-53v41q0 31 -29 31q-31 0 -31 -31v-187q0 -30 31 -30q29 0 29 30v66 h-29l-21 25l21 26h82v-119q0 -81 -82 -81t-82 81zM1413 1188l41 293l43 -293h-84zM1423 2v72h19v-58h53v-14h-72zM1513 8v15q0 3 3 6h22v-27h-20q-5 0 -5 6zM1516 471l18 27h145v-52h-94v-96h70v-51h-70v-94h94v-51h-145v292zM1569 2v72h65q15 0 15 -15v-8q0 -8 -11 -12 q13 -3 13 -12v-11q0 -14 -23 -14h-59zM1587 16h39q8 0 8 4v9q0 4 -8 4h-39v-17zM1587 47h39q8 0 8 4v6q0 4 -8 4h-39v-14zM1679 2v72h19v-58h53v-14h-72zM1716 154v344l25 20l26 -20v-293h88v-51h-139zM1769 20v37q0 17 19 17h55q19 0 19 -17v-37q0 -18 -19 -18h-55 q-19 0 -19 18zM1788 16h55v43h-55v-43zM1890 20v37q0 17 17 17h51q18 0 18 -17l-18 -4v6h-53v-43h53v15h-27v12h45v-23q0 -18 -18 -18h-51q-17 0 -17 18zM1911 471l16 27h148v-52h-97v-96h70v-51h-70v-145h-51v292zM2005 20l12 3v-7h54v15h-46q-18 0 -18 18v8q0 17 18 17h41 q19 0 19 -15v-2l-14 -4v8h-48v-14h45q19 0 19 -18v-9q0 -18 -19 -18h-45q-18 0 -18 18zM2109 233v187q0 82 82 82t82 -82v-187q0 -81 -82 -81t-82 81zM2116 2v72h63q19 0 19 -15v-16q0 -12 -19 -12h-47v-29h-16zM2132 43h39q8 0 8 6v8q0 4 -8 4h-39v-18zM2161 233 q0 -30 30 -30q29 0 29 30v187q0 31 -29 31q-30 0 -30 -31v-187zM2220 20v37q0 17 18 17h54q18 0 18 -17v-37q0 -18 -18 -18h-54q-18 0 -18 18zM2234 16h58v43h-58v-43zM2302 471l18 27h58l67 -232v232h54v-344h-56l-71 221v-221h-52v295zM2331 61v13h84v-13h-33v-59h-19v59 h-32zM2437 6v23h23q4 -4 4 -6v-15q0 -2 -4 -6h-21q-2 0 -2 4zM2490 20v37q0 17 19 17h43q18 0 18 -17v-8l-14 -2v12h-47v-43h47v15l14 -2v-9q0 -18 -18 -18h-43q-19 0 -19 18zM2540 446v52h161v-52h-57v-292l-25 -19l-26 19v292h-53zM2599 20v37q0 17 18 17h54q18 0 18 -17 v-37q0 -18 -18 -18h-54q-18 0 -18 18zM2613 16h60v43h-60v-43zM2720 2v72h12l35 -43l35 43h12v-72h-16v49l-31 -41h-2l-33 41v-49h-12zM2736 248l21 18l28 -14q3 -55 37 -55q33 6 33 41q0 26 -41 67q-26 24 -59 60q-13 33 -13 51q0 86 80 86q76 0 82 -80l-49 -10 q-3 45 -33 45q-26 0 -26 -39q0 -25 67 -92q43 -43 43 -84q3 -90 -82 -90q-82 0 -88 96zM2826 0l43 92h10l-43 -92h-10z" />
<glyph unicode="4" horiz-adv-x="2906" d="M0 469l18 29h76q90 0 90 -97q0 -49 -34 -67q43 -15 43 -82q0 -98 -80 -98h-95v292zM18 2v72h19v-27h53v27h14v-72h-14v31h-53v-31h-19zM74 205h20q41 0 41 49q0 53 -41 53h-20v-102zM74 356h20q37 0 37 45t-37 45h-20v-90zM129 61v13h84v-13h-33v-59h-18v59h-33zM221 61 v13h84v-13h-37v-59h-14v59h-33zM236 154v344h53v-344l-27 -19zM326 2v72h63q19 0 19 -15v-16q0 -12 -19 -12h-45v-29h-18zM336 154v344l22 20l29 -20v-293h90v-51h-141zM344 43h37q8 0 8 6v8q0 4 -8 4h-37v-18zM430 6v23h27v-27h-25zM430 49v23q2 2 8 2h13q4 0 6 -2v-23h-27 zM467 0l43 92h10l-43 -92h-10zM512 0l43 92h10l-43 -92h-10zM512 154v344l23 20l28 -20v-293h90v-51h-141zM580 2v72h63q14 0 14 -15v-8q0 -9 -12 -12q12 -3 12 -12v-11q0 -14 -20 -14h-57zM594 16h41q8 0 8 4v9q0 4 -8 4h-41v-17zM594 47h41q8 0 8 4v6q0 4 -8 4h-41v-14z M625 498h57l37 -123l39 123h57l-70 -201v-143h-51v143zM688 2v72h17v-72h-17zM702 1497l533 59l225 492l217 -489l537 -62l-395 -358l108 -529l-465 267l-471 -267l111 523zM737 2v72h17v-58h55v-14h-72zM827 2v72h19v-58h55v-14h-74zM887 154l55 344h72l59 -344l-29 -15 l-28 15l-10 79h-54l-12 -79l-29 -15zM891 74h22l25 -27l25 27h20l-39 -37v-35h-14v31zM961 285h38l-20 133zM981 2l41 72h18l41 -72h-18l-10 16h-47l-7 -16h-18zM1014 31h33l-17 30zM1098 2v72h65q15 0 15 -15v-16q0 -14 -15 -14h-10l33 -27h-23l-30 27h-17v-27h-18z M1098 471l18 27h80q82 0 82 -82v-49q0 -39 -29 -62l39 -151h-57l-31 131h-33v-131h-51v295zM1116 41h39q8 0 8 6v10q0 4 -8 4h-39v-20zM1167 336h31q29 0 29 29v51q0 26 -29 26h-31v-106zM1206 20v37q0 17 19 17h51q16 0 16 -17l-16 -4v6h-55v-43h55v15h-29v12h45v-23 q0 -18 -16 -18h-51q-19 0 -19 18zM1255 909l58 -37l57 37l29 168h114l25 -168l61 -37l58 37l-123 740h-154zM1321 2v72h78v-13h-60v-14h33v-14h-33v-17h60v-14h-78zM1323 231v187q0 84 82 84t82 -84v-39h-53v41q0 31 -29 31q-31 0 -31 -31v-187q0 -30 31 -30q29 0 29 30v66 h-29l-21 25l21 26h82v-119q0 -81 -82 -81t-82 81zM1413 1188l41 293l43 -293h-84zM1423 2v72h19v-58h53v-14h-72zM1513 8v15q0 3 3 6h22v-27h-20q-5 0 -5 6zM1516 471l18 27h145v-52h-94v-96h70v-51h-70v-94h94v-51h-145v292zM1569 2v72h65q15 0 15 -15v-8q0 -8 -11 -12 q13 -3 13 -12v-11q0 -14 -23 -14h-59zM1587 16h39q8 0 8 4v9q0 4 -8 4h-39v-17zM1587 47h39q8 0 8 4v6q0 4 -8 4h-39v-14zM1679 2v72h19v-58h53v-14h-72zM1716 154v344l25 20l26 -20v-293h88v-51h-139zM1769 20v37q0 17 19 17h55q19 0 19 -17v-37q0 -18 -19 -18h-55 q-19 0 -19 18zM1788 16h55v43h-55v-43zM1890 20v37q0 17 17 17h51q18 0 18 -17l-18 -4v6h-53v-43h53v15h-27v12h45v-23q0 -18 -18 -18h-51q-17 0 -17 18zM1911 471l16 27h148v-52h-97v-96h70v-51h-70v-145h-51v292zM2005 20l12 3v-7h54v15h-46q-18 0 -18 18v8q0 17 18 17h41 q19 0 19 -15v-2l-14 -4v8h-48v-14h45q19 0 19 -18v-9q0 -18 -19 -18h-45q-18 0 -18 18zM2109 233v187q0 82 82 82t82 -82v-187q0 -81 -82 -81t-82 81zM2116 2v72h63q19 0 19 -15v-16q0 -12 -19 -12h-47v-29h-16zM2132 43h39q8 0 8 6v8q0 4 -8 4h-39v-18zM2161 233 q0 -30 30 -30q29 0 29 30v187q0 31 -29 31q-30 0 -30 -31v-187zM2220 20v37q0 17 18 17h54q18 0 18 -17v-37q0 -18 -18 -18h-54q-18 0 -18 18zM2234 16h58v43h-58v-43zM2302 471l18 27h58l67 -232v232h54v-344h-56l-71 221v-221h-52v295zM2331 61v13h84v-13h-33v-59h-19v59 h-32zM2437 6v23h23q4 -4 4 -6v-15q0 -2 -4 -6h-21q-2 0 -2 4zM2490 20v37q0 17 19 17h43q18 0 18 -17v-8l-14 -2v12h-47v-43h47v15l14 -2v-9q0 -18 -18 -18h-43q-19 0 -19 18zM2540 446v52h161v-52h-57v-292l-25 -19l-26 19v292h-53zM2599 20v37q0 17 18 17h54q18 0 18 -17 v-37q0 -18 -18 -18h-54q-18 0 -18 18zM2613 16h60v43h-60v-43zM2720 2v72h12l35 -43l35 43h12v-72h-16v49l-31 -41h-2l-33 41v-49h-12zM2736 248l21 18l28 -14q3 -55 37 -55q33 6 33 41q0 26 -41 67q-26 24 -59 60q-13 33 -13 51q0 86 80 86q76 0 82 -80l-49 -10 q-3 45 -33 45q-26 0 -26 -39q0 -25 67 -92q43 -43 43 -84q3 -90 -82 -90q-82 0 -88 96zM2826 0l43 92h10l-43 -92h-10z" />
<glyph unicode="5" horiz-adv-x="2906" d="M0 469l18 29h76q90 0 90 -97q0 -49 -34 -67q43 -15 43 -82q0 -98 -80 -98h-95v292zM18 2v72h19v-27h53v27h14v-72h-14v31h-53v-31h-19zM74 205h20q41 0 41 49q0 53 -41 53h-20v-102zM74 356h20q37 0 37 45t-37 45h-20v-90zM129 61v13h84v-13h-33v-59h-18v59h-33zM221 61 v13h84v-13h-37v-59h-14v59h-33zM236 154v344h53v-344l-27 -19zM326 2v72h63q19 0 19 -15v-16q0 -12 -19 -12h-45v-29h-18zM336 154v344l22 20l29 -20v-293h90v-51h-141zM344 43h37q8 0 8 6v8q0 4 -8 4h-37v-18zM430 6v23h27v-27h-25zM430 49v23q2 2 8 2h13q4 0 6 -2v-23h-27 zM467 0l43 92h10l-43 -92h-10zM512 0l43 92h10l-43 -92h-10zM512 154v344l23 20l28 -20v-293h90v-51h-141zM580 2v72h63q14 0 14 -15v-8q0 -9 -12 -12q12 -3 12 -12v-11q0 -14 -20 -14h-57zM594 16h41q8 0 8 4v9q0 4 -8 4h-41v-17zM594 47h41q8 0 8 4v6q0 4 -8 4h-41v-14z M625 498h57l37 -123l39 123h57l-70 -201v-143h-51v143zM688 2v72h17v-72h-17zM702 1497l533 59l225 492l217 -489l537 -62l-395 -358l108 -529l-465 267l-471 -267l111 523zM737 2v72h17v-58h55v-14h-72zM827 2v72h19v-58h55v-14h-74zM887 154l55 344h72l59 -344l-29 -15 l-28 15l-10 79h-54l-12 -79l-29 -15zM891 74h22l25 -27l25 27h20l-39 -37v-35h-14v31zM961 285h38l-20 133zM981 2l41 72h18l41 -72h-18l-10 16h-47l-7 -16h-18zM1014 31h33l-17 30zM1098 2v72h65q15 0 15 -15v-16q0 -14 -15 -14h-10l33 -27h-23l-30 27h-17v-27h-18z M1098 471l18 27h80q82 0 82 -82v-49q0 -39 -29 -62l39 -151h-57l-31 131h-33v-131h-51v295zM1116 41h39q8 0 8 6v10q0 4 -8 4h-39v-20zM1167 336h31q29 0 29 29v51q0 26 -29 26h-31v-106zM1206 20v37q0 17 19 17h51q16 0 16 -17l-16 -4v6h-55v-43h55v15h-29v12h45v-23 q0 -18 -16 -18h-51q-19 0 -19 18zM1255 909l58 -37l57 37l29 168h114l25 -168l61 -37l58 37l-123 740h-154zM1321 2v72h78v-13h-60v-14h33v-14h-33v-17h60v-14h-78zM1323 231v187q0 84 82 84t82 -84v-39h-53v41q0 31 -29 31q-31 0 -31 -31v-187q0 -30 31 -30q29 0 29 30v66 h-29l-21 25l21 26h82v-119q0 -81 -82 -81t-82 81zM1413 1188l41 293l43 -293h-84zM1423 2v72h19v-58h53v-14h-72zM1513 8v15q0 3 3 6h22v-27h-20q-5 0 -5 6zM1516 471l18 27h145v-52h-94v-96h70v-51h-70v-94h94v-51h-145v292zM1569 2v72h65q15 0 15 -15v-8q0 -8 -11 -12 q13 -3 13 -12v-11q0 -14 -23 -14h-59zM1587 16h39q8 0 8 4v9q0 4 -8 4h-39v-17zM1587 47h39q8 0 8 4v6q0 4 -8 4h-39v-14zM1679 2v72h19v-58h53v-14h-72zM1716 154v344l25 20l26 -20v-293h88v-51h-139zM1769 20v37q0 17 19 17h55q19 0 19 -17v-37q0 -18 -19 -18h-55 q-19 0 -19 18zM1788 16h55v43h-55v-43zM1890 20v37q0 17 17 17h51q18 0 18 -17l-18 -4v6h-53v-43h53v15h-27v12h45v-23q0 -18 -18 -18h-51q-17 0 -17 18zM1911 471l16 27h148v-52h-97v-96h70v-51h-70v-145h-51v292zM2005 20l12 3v-7h54v15h-46q-18 0 -18 18v8q0 17 18 17h41 q19 0 19 -15v-2l-14 -4v8h-48v-14h45q19 0 19 -18v-9q0 -18 -19 -18h-45q-18 0 -18 18zM2109 233v187q0 82 82 82t82 -82v-187q0 -81 -82 -81t-82 81zM2116 2v72h63q19 0 19 -15v-16q0 -12 -19 -12h-47v-29h-16zM2132 43h39q8 0 8 6v8q0 4 -8 4h-39v-18zM2161 233 q0 -30 30 -30q29 0 29 30v187q0 31 -29 31q-30 0 -30 -31v-187zM2220 20v37q0 17 18 17h54q18 0 18 -17v-37q0 -18 -18 -18h-54q-18 0 -18 18zM2234 16h58v43h-58v-43zM2302 471l18 27h58l67 -232v232h54v-344h-56l-71 221v-221h-52v295zM2331 61v13h84v-13h-33v-59h-19v59 h-32zM2437 6v23h23q4 -4 4 -6v-15q0 -2 -4 -6h-21q-2 0 -2 4zM2490 20v37q0 17 19 17h43q18 0 18 -17v-8l-14 -2v12h-47v-43h47v15l14 -2v-9q0 -18 -18 -18h-43q-19 0 -19 18zM2540 446v52h161v-52h-57v-292l-25 -19l-26 19v292h-53zM2599 20v37q0 17 18 17h54q18 0 18 -17 v-37q0 -18 -18 -18h-54q-18 0 -18 18zM2613 16h60v43h-60v-43zM2720 2v72h12l35 -43l35 43h12v-72h-16v49l-31 -41h-2l-33 41v-49h-12zM2736 248l21 18l28 -14q3 -55 37 -55q33 6 33 41q0 26 -41 67q-26 24 -59 60q-13 33 -13 51q0 86 80 86q76 0 82 -80l-49 -10 q-3 45 -33 45q-26 0 -26 -39q0 -25 67 -92q43 -43 43 -84q3 -90 -82 -90q-82 0 -88 96zM2826 0l43 92h10l-43 -92h-10z" />
<glyph unicode="6" horiz-adv-x="2906" d="M0 469l18 29h76q90 0 90 -97q0 -49 -34 -67q43 -15 43 -82q0 -98 -80 -98h-95v292zM18 2v72h19v-27h53v27h14v-72h-14v31h-53v-31h-19zM74 205h20q41 0 41 49q0 53 -41 53h-20v-102zM74 356h20q37 0 37 45t-37 45h-20v-90zM129 61v13h84v-13h-33v-59h-18v59h-33zM221 61 v13h84v-13h-37v-59h-14v59h-33zM236 154v344h53v-344l-27 -19zM326 2v72h63q19 0 19 -15v-16q0 -12 -19 -12h-45v-29h-18zM336 154v344l22 20l29 -20v-293h90v-51h-141zM344 43h37q8 0 8 6v8q0 4 -8 4h-37v-18zM430 6v23h27v-27h-25zM430 49v23q2 2 8 2h13q4 0 6 -2v-23h-27 zM467 0l43 92h10l-43 -92h-10zM512 0l43 92h10l-43 -92h-10zM512 154v344l23 20l28 -20v-293h90v-51h-141zM580 2v72h63q14 0 14 -15v-8q0 -9 -12 -12q12 -3 12 -12v-11q0 -14 -20 -14h-57zM594 16h41q8 0 8 4v9q0 4 -8 4h-41v-17zM594 47h41q8 0 8 4v6q0 4 -8 4h-41v-14z M625 498h57l37 -123l39 123h57l-70 -201v-143h-51v143zM688 2v72h17v-72h-17zM702 1497l533 59l225 492l217 -489l537 -62l-395 -358l108 -529l-465 267l-471 -267l111 523zM737 2v72h17v-58h55v-14h-72zM827 2v72h19v-58h55v-14h-74zM887 154l55 344h72l59 -344l-29 -15 l-28 15l-10 79h-54l-12 -79l-29 -15zM891 74h22l25 -27l25 27h20l-39 -37v-35h-14v31zM961 285h38l-20 133zM981 2l41 72h18l41 -72h-18l-10 16h-47l-7 -16h-18zM1014 31h33l-17 30zM1098 2v72h65q15 0 15 -15v-16q0 -14 -15 -14h-10l33 -27h-23l-30 27h-17v-27h-18z M1098 471l18 27h80q82 0 82 -82v-49q0 -39 -29 -62l39 -151h-57l-31 131h-33v-131h-51v295zM1116 41h39q8 0 8 6v10q0 4 -8 4h-39v-20zM1167 336h31q29 0 29 29v51q0 26 -29 26h-31v-106zM1206 20v37q0 17 19 17h51q16 0 16 -17l-16 -4v6h-55v-43h55v15h-29v12h45v-23 q0 -18 -16 -18h-51q-19 0 -19 18zM1255 909l58 -37l57 37l29 168h114l25 -168l61 -37l58 37l-123 740h-154zM1321 2v72h78v-13h-60v-14h33v-14h-33v-17h60v-14h-78zM1323 231v187q0 84 82 84t82 -84v-39h-53v41q0 31 -29 31q-31 0 -31 -31v-187q0 -30 31 -30q29 0 29 30v66 h-29l-21 25l21 26h82v-119q0 -81 -82 -81t-82 81zM1413 1188l41 293l43 -293h-84zM1423 2v72h19v-58h53v-14h-72zM1513 8v15q0 3 3 6h22v-27h-20q-5 0 -5 6zM1516 471l18 27h145v-52h-94v-96h70v-51h-70v-94h94v-51h-145v292zM1569 2v72h65q15 0 15 -15v-8q0 -8 -11 -12 q13 -3 13 -12v-11q0 -14 -23 -14h-59zM1587 16h39q8 0 8 4v9q0 4 -8 4h-39v-17zM1587 47h39q8 0 8 4v6q0 4 -8 4h-39v-14zM1679 2v72h19v-58h53v-14h-72zM1716 154v344l25 20l26 -20v-293h88v-51h-139zM1769 20v37q0 17 19 17h55q19 0 19 -17v-37q0 -18 -19 -18h-55 q-19 0 -19 18zM1788 16h55v43h-55v-43zM1890 20v37q0 17 17 17h51q18 0 18 -17l-18 -4v6h-53v-43h53v15h-27v12h45v-23q0 -18 -18 -18h-51q-17 0 -17 18zM1911 471l16 27h148v-52h-97v-96h70v-51h-70v-145h-51v292zM2005 20l12 3v-7h54v15h-46q-18 0 -18 18v8q0 17 18 17h41 q19 0 19 -15v-2l-14 -4v8h-48v-14h45q19 0 19 -18v-9q0 -18 -19 -18h-45q-18 0 -18 18zM2109 233v187q0 82 82 82t82 -82v-187q0 -81 -82 -81t-82 81zM2116 2v72h63q19 0 19 -15v-16q0 -12 -19 -12h-47v-29h-16zM2132 43h39q8 0 8 6v8q0 4 -8 4h-39v-18zM2161 233 q0 -30 30 -30q29 0 29 30v187q0 31 -29 31q-30 0 -30 -31v-187zM2220 20v37q0 17 18 17h54q18 0 18 -17v-37q0 -18 -18 -18h-54q-18 0 -18 18zM2234 16h58v43h-58v-43zM2302 471l18 27h58l67 -232v232h54v-344h-56l-71 221v-221h-52v295zM2331 61v13h84v-13h-33v-59h-19v59 h-32zM2437 6v23h23q4 -4 4 -6v-15q0 -2 -4 -6h-21q-2 0 -2 4zM2490 20v37q0 17 19 17h43q18 0 18 -17v-8l-14 -2v12h-47v-43h47v15l14 -2v-9q0 -18 -18 -18h-43q-19 0 -19 18zM2540 446v52h161v-52h-57v-292l-25 -19l-26 19v292h-53zM2599 20v37q0 17 18 17h54q18 0 18 -17 v-37q0 -18 -18 -18h-54q-18 0 -18 18zM2613 16h60v43h-60v-43zM2720 2v72h12l35 -43l35 43h12v-72h-16v49l-31 -41h-2l-33 41v-49h-12zM2736 248l21 18l28 -14q3 -55 37 -55q33 6 33 41q0 26 -41 67q-26 24 -59 60q-13 33 -13 51q0 86 80 86q76 0 82 -80l-49 -10 q-3 45 -33 45q-26 0 -26 -39q0 -25 67 -92q43 -43 43 -84q3 -90 -82 -90q-82 0 -88 96zM2826 0l43 92h10l-43 -92h-10z" />
<glyph unicode="7" horiz-adv-x="2906" d="M0 469l18 29h76q90 0 90 -97q0 -49 -34 -67q43 -15 43 -82q0 -98 -80 -98h-95v292zM18 2v72h19v-27h53v27h14v-72h-14v31h-53v-31h-19zM74 205h20q41 0 41 49q0 53 -41 53h-20v-102zM74 356h20q37 0 37 45t-37 45h-20v-90zM129 61v13h84v-13h-33v-59h-18v59h-33zM221 61 v13h84v-13h-37v-59h-14v59h-33zM236 154v344h53v-344l-27 -19zM326 2v72h63q19 0 19 -15v-16q0 -12 -19 -12h-45v-29h-18zM336 154v344l22 20l29 -20v-293h90v-51h-141zM344 43h37q8 0 8 6v8q0 4 -8 4h-37v-18zM430 6v23h27v-27h-25zM430 49v23q2 2 8 2h13q4 0 6 -2v-23h-27 zM467 0l43 92h10l-43 -92h-10zM512 0l43 92h10l-43 -92h-10zM512 154v344l23 20l28 -20v-293h90v-51h-141zM580 2v72h63q14 0 14 -15v-8q0 -9 -12 -12q12 -3 12 -12v-11q0 -14 -20 -14h-57zM594 16h41q8 0 8 4v9q0 4 -8 4h-41v-17zM594 47h41q8 0 8 4v6q0 4 -8 4h-41v-14z M625 498h57l37 -123l39 123h57l-70 -201v-143h-51v143zM688 2v72h17v-72h-17zM702 1497l533 59l225 492l217 -489l537 -62l-395 -358l108 -529l-465 267l-471 -267l111 523zM737 2v72h17v-58h55v-14h-72zM827 2v72h19v-58h55v-14h-74zM887 154l55 344h72l59 -344l-29 -15 l-28 15l-10 79h-54l-12 -79l-29 -15zM891 74h22l25 -27l25 27h20l-39 -37v-35h-14v31zM961 285h38l-20 133zM981 2l41 72h18l41 -72h-18l-10 16h-47l-7 -16h-18zM1014 31h33l-17 30zM1098 2v72h65q15 0 15 -15v-16q0 -14 -15 -14h-10l33 -27h-23l-30 27h-17v-27h-18z M1098 471l18 27h80q82 0 82 -82v-49q0 -39 -29 -62l39 -151h-57l-31 131h-33v-131h-51v295zM1116 41h39q8 0 8 6v10q0 4 -8 4h-39v-20zM1167 336h31q29 0 29 29v51q0 26 -29 26h-31v-106zM1206 20v37q0 17 19 17h51q16 0 16 -17l-16 -4v6h-55v-43h55v15h-29v12h45v-23 q0 -18 -16 -18h-51q-19 0 -19 18zM1255 909l58 -37l57 37l29 168h114l25 -168l61 -37l58 37l-123 740h-154zM1321 2v72h78v-13h-60v-14h33v-14h-33v-17h60v-14h-78zM1323 231v187q0 84 82 84t82 -84v-39h-53v41q0 31 -29 31q-31 0 -31 -31v-187q0 -30 31 -30q29 0 29 30v66 h-29l-21 25l21 26h82v-119q0 -81 -82 -81t-82 81zM1413 1188l41 293l43 -293h-84zM1423 2v72h19v-58h53v-14h-72zM1513 8v15q0 3 3 6h22v-27h-20q-5 0 -5 6zM1516 471l18 27h145v-52h-94v-96h70v-51h-70v-94h94v-51h-145v292zM1569 2v72h65q15 0 15 -15v-8q0 -8 -11 -12 q13 -3 13 -12v-11q0 -14 -23 -14h-59zM1587 16h39q8 0 8 4v9q0 4 -8 4h-39v-17zM1587 47h39q8 0 8 4v6q0 4 -8 4h-39v-14zM1679 2v72h19v-58h53v-14h-72zM1716 154v344l25 20l26 -20v-293h88v-51h-139zM1769 20v37q0 17 19 17h55q19 0 19 -17v-37q0 -18 -19 -18h-55 q-19 0 -19 18zM1788 16h55v43h-55v-43zM1890 20v37q0 17 17 17h51q18 0 18 -17l-18 -4v6h-53v-43h53v15h-27v12h45v-23q0 -18 -18 -18h-51q-17 0 -17 18zM1911 471l16 27h148v-52h-97v-96h70v-51h-70v-145h-51v292zM2005 20l12 3v-7h54v15h-46q-18 0 -18 18v8q0 17 18 17h41 q19 0 19 -15v-2l-14 -4v8h-48v-14h45q19 0 19 -18v-9q0 -18 -19 -18h-45q-18 0 -18 18zM2109 233v187q0 82 82 82t82 -82v-187q0 -81 -82 -81t-82 81zM2116 2v72h63q19 0 19 -15v-16q0 -12 -19 -12h-47v-29h-16zM2132 43h39q8 0 8 6v8q0 4 -8 4h-39v-18zM2161 233 q0 -30 30 -30q29 0 29 30v187q0 31 -29 31q-30 0 -30 -31v-187zM2220 20v37q0 17 18 17h54q18 0 18 -17v-37q0 -18 -18 -18h-54q-18 0 -18 18zM2234 16h58v43h-58v-43zM2302 471l18 27h58l67 -232v232h54v-344h-56l-71 221v-221h-52v295zM2331 61v13h84v-13h-33v-59h-19v59 h-32zM2437 6v23h23q4 -4 4 -6v-15q0 -2 -4 -6h-21q-2 0 -2 4zM2490 20v37q0 17 19 17h43q18 0 18 -17v-8l-14 -2v12h-47v-43h47v15l14 -2v-9q0 -18 -18 -18h-43q-19 0 -19 18zM2540 446v52h161v-52h-57v-292l-25 -19l-26 19v292h-53zM2599 20v37q0 17 18 17h54q18 0 18 -17 v-37q0 -18 -18 -18h-54q-18 0 -18 18zM2613 16h60v43h-60v-43zM2720 2v72h12l35 -43l35 43h12v-72h-16v49l-31 -41h-2l-33 41v-49h-12zM2736 248l21 18l28 -14q3 -55 37 -55q33 6 33 41q0 26 -41 67q-26 24 -59 60q-13 33 -13 51q0 86 80 86q76 0 82 -80l-49 -10 q-3 45 -33 45q-26 0 -26 -39q0 -25 67 -92q43 -43 43 -84q3 -90 -82 -90q-82 0 -88 96zM2826 0l43 92h10l-43 -92h-10z" />
<glyph unicode="8" horiz-adv-x="2906" d="M0 469l18 29h76q90 0 90 -97q0 -49 -34 -67q43 -15 43 -82q0 -98 -80 -98h-95v292zM18 2v72h19v-27h53v27h14v-72h-14v31h-53v-31h-19zM74 205h20q41 0 41 49q0 53 -41 53h-20v-102zM74 356h20q37 0 37 45t-37 45h-20v-90zM129 61v13h84v-13h-33v-59h-18v59h-33zM221 61 v13h84v-13h-37v-59h-14v59h-33zM236 154v344h53v-344l-27 -19zM326 2v72h63q19 0 19 -15v-16q0 -12 -19 -12h-45v-29h-18zM336 154v344l22 20l29 -20v-293h90v-51h-141zM344 43h37q8 0 8 6v8q0 4 -8 4h-37v-18zM430 6v23h27v-27h-25zM430 49v23q2 2 8 2h13q4 0 6 -2v-23h-27 zM467 0l43 92h10l-43 -92h-10zM512 0l43 92h10l-43 -92h-10zM512 154v344l23 20l28 -20v-293h90v-51h-141zM580 2v72h63q14 0 14 -15v-8q0 -9 -12 -12q12 -3 12 -12v-11q0 -14 -20 -14h-57zM594 16h41q8 0 8 4v9q0 4 -8 4h-41v-17zM594 47h41q8 0 8 4v6q0 4 -8 4h-41v-14z M625 498h57l37 -123l39 123h57l-70 -201v-143h-51v143zM688 2v72h17v-72h-17zM702 1497l533 59l225 492l217 -489l537 -62l-395 -358l108 -529l-465 267l-471 -267l111 523zM737 2v72h17v-58h55v-14h-72zM827 2v72h19v-58h55v-14h-74zM887 154l55 344h72l59 -344l-29 -15 l-28 15l-10 79h-54l-12 -79l-29 -15zM891 74h22l25 -27l25 27h20l-39 -37v-35h-14v31zM961 285h38l-20 133zM981 2l41 72h18l41 -72h-18l-10 16h-47l-7 -16h-18zM1014 31h33l-17 30zM1098 2v72h65q15 0 15 -15v-16q0 -14 -15 -14h-10l33 -27h-23l-30 27h-17v-27h-18z M1098 471l18 27h80q82 0 82 -82v-49q0 -39 -29 -62l39 -151h-57l-31 131h-33v-131h-51v295zM1116 41h39q8 0 8 6v10q0 4 -8 4h-39v-20zM1167 336h31q29 0 29 29v51q0 26 -29 26h-31v-106zM1206 20v37q0 17 19 17h51q16 0 16 -17l-16 -4v6h-55v-43h55v15h-29v12h45v-23 q0 -18 -16 -18h-51q-19 0 -19 18zM1255 909l58 -37l57 37l29 168h114l25 -168l61 -37l58 37l-123 740h-154zM1321 2v72h78v-13h-60v-14h33v-14h-33v-17h60v-14h-78zM1323 231v187q0 84 82 84t82 -84v-39h-53v41q0 31 -29 31q-31 0 -31 -31v-187q0 -30 31 -30q29 0 29 30v66 h-29l-21 25l21 26h82v-119q0 -81 -82 -81t-82 81zM1413 1188l41 293l43 -293h-84zM1423 2v72h19v-58h53v-14h-72zM1513 8v15q0 3 3 6h22v-27h-20q-5 0 -5 6zM1516 471l18 27h145v-52h-94v-96h70v-51h-70v-94h94v-51h-145v292zM1569 2v72h65q15 0 15 -15v-8q0 -8 -11 -12 q13 -3 13 -12v-11q0 -14 -23 -14h-59zM1587 16h39q8 0 8 4v9q0 4 -8 4h-39v-17zM1587 47h39q8 0 8 4v6q0 4 -8 4h-39v-14zM1679 2v72h19v-58h53v-14h-72zM1716 154v344l25 20l26 -20v-293h88v-51h-139zM1769 20v37q0 17 19 17h55q19 0 19 -17v-37q0 -18 -19 -18h-55 q-19 0 -19 18zM1788 16h55v43h-55v-43zM1890 20v37q0 17 17 17h51q18 0 18 -17l-18 -4v6h-53v-43h53v15h-27v12h45v-23q0 -18 -18 -18h-51q-17 0 -17 18zM1911 471l16 27h148v-52h-97v-96h70v-51h-70v-145h-51v292zM2005 20l12 3v-7h54v15h-46q-18 0 -18 18v8q0 17 18 17h41 q19 0 19 -15v-2l-14 -4v8h-48v-14h45q19 0 19 -18v-9q0 -18 -19 -18h-45q-18 0 -18 18zM2109 233v187q0 82 82 82t82 -82v-187q0 -81 -82 -81t-82 81zM2116 2v72h63q19 0 19 -15v-16q0 -12 -19 -12h-47v-29h-16zM2132 43h39q8 0 8 6v8q0 4 -8 4h-39v-18zM2161 233 q0 -30 30 -30q29 0 29 30v187q0 31 -29 31q-30 0 -30 -31v-187zM2220 20v37q0 17 18 17h54q18 0 18 -17v-37q0 -18 -18 -18h-54q-18 0 -18 18zM2234 16h58v43h-58v-43zM2302 471l18 27h58l67 -232v232h54v-344h-56l-71 221v-221h-52v295zM2331 61v13h84v-13h-33v-59h-19v59 h-32zM2437 6v23h23q4 -4 4 -6v-15q0 -2 -4 -6h-21q-2 0 -2 4zM2490 20v37q0 17 19 17h43q18 0 18 -17v-8l-14 -2v12h-47v-43h47v15l14 -2v-9q0 -18 -18 -18h-43q-19 0 -19 18zM2540 446v52h161v-52h-57v-292l-25 -19l-26 19v292h-53zM2599 20v37q0 17 18 17h54q18 0 18 -17 v-37q0 -18 -18 -18h-54q-18 0 -18 18zM2613 16h60v43h-60v-43zM2720 2v72h12l35 -43l35 43h12v-72h-16v49l-31 -41h-2l-33 41v-49h-12zM2736 248l21 18l28 -14q3 -55 37 -55q33 6 33 41q0 26 -41 67q-26 24 -59 60q-13 33 -13 51q0 86 80 86q76 0 82 -80l-49 -10 q-3 45 -33 45q-26 0 -26 -39q0 -25 67 -92q43 -43 43 -84q3 -90 -82 -90q-82 0 -88 96zM2826 0l43 92h10l-43 -92h-10z" />
<glyph unicode="9" horiz-adv-x="2906" d="M0 469l18 29h76q90 0 90 -97q0 -49 -34 -67q43 -15 43 -82q0 -98 -80 -98h-95v292zM18 2v72h19v-27h53v27h14v-72h-14v31h-53v-31h-19zM74 205h20q41 0 41 49q0 53 -41 53h-20v-102zM74 356h20q37 0 37 45t-37 45h-20v-90zM129 61v13h84v-13h-33v-59h-18v59h-33zM221 61 v13h84v-13h-37v-59h-14v59h-33zM236 154v344h53v-344l-27 -19zM326 2v72h63q19 0 19 -15v-16q0 -12 -19 -12h-45v-29h-18zM336 154v344l22 20l29 -20v-293h90v-51h-141zM344 43h37q8 0 8 6v8q0 4 -8 4h-37v-18zM430 6v23h27v-27h-25zM430 49v23q2 2 8 2h13q4 0 6 -2v-23h-27 zM467 0l43 92h10l-43 -92h-10zM512 0l43 92h10l-43 -92h-10zM512 154v344l23 20l28 -20v-293h90v-51h-141zM580 2v72h63q14 0 14 -15v-8q0 -9 -12 -12q12 -3 12 -12v-11q0 -14 -20 -14h-57zM594 16h41q8 0 8 4v9q0 4 -8 4h-41v-17zM594 47h41q8 0 8 4v6q0 4 -8 4h-41v-14z M625 498h57l37 -123l39 123h57l-70 -201v-143h-51v143zM688 2v72h17v-72h-17zM702 1497l533 59l225 492l217 -489l537 -62l-395 -358l108 -529l-465 267l-471 -267l111 523zM737 2v72h17v-58h55v-14h-72zM827 2v72h19v-58h55v-14h-74zM887 154l55 344h72l59 -344l-29 -15 l-28 15l-10 79h-54l-12 -79l-29 -15zM891 74h22l25 -27l25 27h20l-39 -37v-35h-14v31zM961 285h38l-20 133zM981 2l41 72h18l41 -72h-18l-10 16h-47l-7 -16h-18zM1014 31h33l-17 30zM1098 2v72h65q15 0 15 -15v-16q0 -14 -15 -14h-10l33 -27h-23l-30 27h-17v-27h-18z M1098 471l18 27h80q82 0 82 -82v-49q0 -39 -29 -62l39 -151h-57l-31 131h-33v-131h-51v295zM1116 41h39q8 0 8 6v10q0 4 -8 4h-39v-20zM1167 336h31q29 0 29 29v51q0 26 -29 26h-31v-106zM1206 20v37q0 17 19 17h51q16 0 16 -17l-16 -4v6h-55v-43h55v15h-29v12h45v-23 q0 -18 -16 -18h-51q-19 0 -19 18zM1255 909l58 -37l57 37l29 168h114l25 -168l61 -37l58 37l-123 740h-154zM1321 2v72h78v-13h-60v-14h33v-14h-33v-17h60v-14h-78zM1323 231v187q0 84 82 84t82 -84v-39h-53v41q0 31 -29 31q-31 0 -31 -31v-187q0 -30 31 -30q29 0 29 30v66 h-29l-21 25l21 26h82v-119q0 -81 -82 -81t-82 81zM1413 1188l41 293l43 -293h-84zM1423 2v72h19v-58h53v-14h-72zM1513 8v15q0 3 3 6h22v-27h-20q-5 0 -5 6zM1516 471l18 27h145v-52h-94v-96h70v-51h-70v-94h94v-51h-145v292zM1569 2v72h65q15 0 15 -15v-8q0 -8 -11 -12 q13 -3 13 -12v-11q0 -14 -23 -14h-59zM1587 16h39q8 0 8 4v9q0 4 -8 4h-39v-17zM1587 47h39q8 0 8 4v6q0 4 -8 4h-39v-14zM1679 2v72h19v-58h53v-14h-72zM1716 154v344l25 20l26 -20v-293h88v-51h-139zM1769 20v37q0 17 19 17h55q19 0 19 -17v-37q0 -18 -19 -18h-55 q-19 0 -19 18zM1788 16h55v43h-55v-43zM1890 20v37q0 17 17 17h51q18 0 18 -17l-18 -4v6h-53v-43h53v15h-27v12h45v-23q0 -18 -18 -18h-51q-17 0 -17 18zM1911 471l16 27h148v-52h-97v-96h70v-51h-70v-145h-51v292zM2005 20l12 3v-7h54v15h-46q-18 0 -18 18v8q0 17 18 17h41 q19 0 19 -15v-2l-14 -4v8h-48v-14h45q19 0 19 -18v-9q0 -18 -19 -18h-45q-18 0 -18 18zM2109 233v187q0 82 82 82t82 -82v-187q0 -81 -82 -81t-82 81zM2116 2v72h63q19 0 19 -15v-16q0 -12 -19 -12h-47v-29h-16zM2132 43h39q8 0 8 6v8q0 4 -8 4h-39v-18zM2161 233 q0 -30 30 -30q29 0 29 30v187q0 31 -29 31q-30 0 -30 -31v-187zM2220 20v37q0 17 18 17h54q18 0 18 -17v-37q0 -18 -18 -18h-54q-18 0 -18 18zM2234 16h58v43h-58v-43zM2302 471l18 27h58l67 -232v232h54v-344h-56l-71 221v-221h-52v295zM2331 61v13h84v-13h-33v-59h-19v59 h-32zM2437 6v23h23q4 -4 4 -6v-15q0 -2 -4 -6h-21q-2 0 -2 4zM2490 20v37q0 17 19 17h43q18 0 18 -17v-8l-14 -2v12h-47v-43h47v15l14 -2v-9q0 -18 -18 -18h-43q-19 0 -19 18zM2540 446v52h161v-52h-57v-292l-25 -19l-26 19v292h-53zM2599 20v37q0 17 18 17h54q18 0 18 -17 v-37q0 -18 -18 -18h-54q-18 0 -18 18zM2613 16h60v43h-60v-43zM2720 2v72h12l35 -43l35 43h12v-72h-16v49l-31 -41h-2l-33 41v-49h-12zM2736 248l21 18l28 -14q3 -55 37 -55q33 6 33 41q0 26 -41 67q-26 24 -59 60q-13 33 -13 51q0 86 80 86q76 0 82 -80l-49 -10 q-3 45 -33 45q-26 0 -26 -39q0 -25 67 -92q43 -43 43 -84q3 -90 -82 -90q-82 0 -88 96zM2826 0l43 92h10l-43 -92h-10z" />
<glyph unicode=":" horiz-adv-x="264" d="M4 227q0 43 31.5 75t75.5 32q43 0 74.5 -32t31.5 -75q0 -44 -31.5 -75t-74.5 -31q-44 0 -75.5 31t-31.5 75zM4 678q0 43 31.5 74.5t75.5 31.5q43 0 74.5 -31.5t31.5 -74.5q0 -44 -31.5 -75.5t-74.5 -31.5q-44 0 -75.5 31.5t-31.5 75.5z" />
<glyph unicode=";" horiz-adv-x="317" d="M0 -33q51 94 51 250v10q0 43 31.5 75t75.5 32q43 0 74.5 -32t31.5 -75q0 -21 -6 -39q-12 -42 -63.5 -113.5t-94.5 -107.5h-100zM45 678q0 43 31.5 74.5t75.5 31.5q43 0 74.5 -31.5t31.5 -74.5q0 -44 -31.5 -75.5t-74.5 -31.5q-44 0 -75.5 31.5t-31.5 75.5z" />
<glyph unicode="&#x3c;" horiz-adv-x="831" d="M-4 684q16 14 43.5 39.5t42.5 38.5q65 56 185 165t173 156h316q-344 -305 -447 -401q213 -197 453 -414q-2 0 -2 -2h-307q-176 161 -373 340q-82 77 -84 78z" />
<glyph unicode="=" horiz-adv-x="942" d="M0 281v184h864v-184h-864zM0 588v184h864v-184h-864z" />
<glyph unicode="&#x3e;" horiz-adv-x="831" d="M-4 268q213 197 453 414q-108 99 -449 401h315q61 -53 179.5 -161t179.5 -160q16 -14 44.5 -39t43.5 -39q-17 -14 -45.5 -40.5t-40.5 -37.5l-373 -340h-305q-2 0 -2 2z" />
<glyph unicode="?" horiz-adv-x="813" d="M-4 967q21 144 131 237q115 94 254 94q162 0 276 -114q115 -115 115 -275q0 -161 -115 -276q-75 -75 -172 -101v-102h-209v193v106h105q76 0 127 51q53 53 53 129q0 74 -53 127q-54 54 -127 54q-68 0 -117 -43q-52 -46 -61 -111zM-4 967l207 -31zM283 145v213h209v-213 h-209zM283 145h209h-209z" />
<glyph unicode="@" horiz-adv-x="1210" d="M25 549q-69 228 45 436q117 213 340 281q155 46 309 4q154 -39 262 -150q0 2 2 2q48 -48 79.5 -115.5t35.5 -138.5q10 -138 -86 -239q-43 -43 -76 -60q-38 -22 -92 -41q-44 -18 -75 -10.5t-49 27.5t-30 55q-10 33 -10 102q0 6 0.5 16.5t0.5 18t-1 11.5l-6 34 q-9 47 -39 64q-24 15 -57 12q-1 0 -21 -4q-48 -12 -82 -55q-32 -40 -43 -113v-39q10 -55 31 -82q23 -33 61 -33h25q22 4 33 11q19 8 39 28l98 -98q-31 -31 -74 -55q-46 -22 -86 -25q-25 -3 -47 0q-97 9 -160 84q-49 60 -59 158q-3 29 0 63q9 103 72 187q64 81 157 106l41 6 q83 12 150 -34v-2q74 -48 96 -144q7 -18 10 -55q2 -23 2 -60v-32q9 3 25 10.5t20 9.5q36 28 45 37q53 53 47 133q-6 89 -69 158v-2q-82 88 -205 119q-116 31 -233 -5q-172 -52 -258 -210q-87 -161 -35 -332q51 -168 211 -258q151 -85 331 -33q112 35 185 111q80 80 110 188 q25 -8 72.5 -21.5t60.5 -17.5q-40 -142 -143 -248q-101 -101 -244 -147q-229 -70 -438 45q-210 115 -278 342z" />
<glyph unicode="A" d="M18 141l453 959l94 198l97 -196l473 -961h-230l-129 262h-405l-123 -262h-230zM465 600h213l-109 223zM465 600l104 223z" />
<glyph unicode="B" horiz-adv-x="772" d="M0 141h209v2h129q145 0 248 103q102 102 102 246q0 145 -102 247l-8 6q81 94 81 218q0 137 -96 233q-99 96 -233 96h-121v2h-209v-1153zM0 1294h209h-209zM209 352v279h129q60 0 98 -41q41 -41 41 -98q0 -55 -41 -99q-41 -41 -98 -41h-129zM209 844v239h121q50 0 84 -34 q35 -35 35 -86q0 -54 -35 -84q-30 -35 -84 -35h-121z" />
<glyph unicode="C" horiz-adv-x="1185" d="M0 723q0 252 178 430t430 178q147 0 277 -65q129 -67 217 -187l-170 -123q-53 73 -141 121q-83 45 -183 45q-162 0 -280 -118q-119 -119 -119 -281q0 -164 119 -283q116 -116 280 -116q107 0 193 47q89 47 147 129l172 -117q-88 -130 -223 -199q-129 -69 -289 -69 q-252 0 -430 178t-178 430zM948 500l172 -117z" />
<glyph unicode="D" horiz-adv-x="1013" d="M0 141h145h197q117 0 223 44.5t185 123.5t123.5 185t44.5 223q0 239 -168 407q-79 79 -185 123.5t-223 44.5h-133v2h-209v-1153zM0 1294h209h-209zM209 350v733h133q153 0 258 -108q109 -109 109 -258t-109 -258t-258 -109h-133z" />
<glyph unicode="E" horiz-adv-x="702" d="M0 141v1155h627v-209h-418v-270h311v-209h-311v-256h418v-211h-627zM209 817v270v-270z" />
<glyph unicode="F" horiz-adv-x="667" d="M0 141v1155h627v-209h-418v-270h311v-209h-311v-467h-209zM209 817v270v-270z" />
<glyph unicode="G" horiz-adv-x="1282" d="M4 723q0 249 178 430q83 86 194 132t236 46q153 0 277 -65q136 -70 217 -187l-170 -123q-53 73 -141 121q-83 45 -183 45q-165 0 -280 -118q-117 -117 -117 -281q0 -163 117 -283q116 -116 280 -116q173 0 293 120q33 33 58 72l-375 4v209h635v-2q0 -262 -168 -430 q-87 -87 -201 -134.5t-242 -47.5q-258 0 -430 178q-178 181 -178 430zM588 520v209v-209z" />
<glyph unicode="H" horiz-adv-x="856" d="M10 141h211v467h357v-467h208v1153h-208v-477h-357v477h-211v-1153zM10 1294h211h-211z" />
<glyph unicode="I" horiz-adv-x="280" d="M0 141h209v1153h-209v-1153zM0 1294h209h-209z" />
<glyph unicode="J" horiz-adv-x="862" d="M-8 545q0 -171 119 -287q121 -121 288 -121q104 0 199 53q93 51 150 146q24 46 34 80q14 43 19 78q4 31 4 124v29v227v420h-209v-420v-227v-29q0 -73 -4 -98q0 -22 -8 -41q-1 -9 -17 -35q-27 -47 -71 -71q-45 -25 -97 -25q-81 0 -139 58q-59 56 -59 139h-209zM596 1294 h209h-209z" />
<glyph unicode="K" horiz-adv-x="864" d="M0 141h209v328l41 57l297 -385h264l-434 566l405 577h-256l-317 -450v450h-209v-1143zM0 1284h209h-209z" />
<glyph unicode="L" horiz-adv-x="636" d="M0 141h209v2h385v211h-385v940h-209v-1153zM0 1294h209h-209z" />
<glyph unicode="M" horiz-adv-x="1576" d="M0 141l326 920l84 237l108 -225l244 -506l246 506l108 225l84 -237l326 -920h-221l-220 615l-323 -615l-324 615l-217 -615h-221zM0 141h221h-221z" />
<glyph unicode="N" horiz-adv-x="899" d="M0 147h209v633l432 -444l182 -191v256v891h-209v-635l-432 445l-182 190v-256v-889zM614 1292h209h-209z" />
<glyph unicode="O" horiz-adv-x="1280" d="M0 723q0 252 178 430t430 178t430 -178q179 -179 179 -430t-179 -430q-178 -178 -430 -178t-430 178t-178 430zM209 723q0 -164 119 -283q116 -116 280 -116q167 0 283 116q117 117 117 283q0 164 -117 281q-118 118 -283 118q-162 0 -280 -118q-119 -119 -119 -281z" />
<glyph unicode="P" horiz-adv-x="731" d="M0 141h209v391h98q155 0 268 113t113 268q0 150 -113 269q-107 110 -268 110h-98v2h-209v-1153zM0 1294h209h-209zM209 743v340h98q72 0 121 -49q49 -52 49 -121q0 -71 -49 -120q-50 -50 -121 -50h-98z" />
<glyph unicode="Q" horiz-adv-x="1269" d="M0 723q0 252 178 430t430 178t430 -178q179 -179 179 -430q0 -200 -109 -348q51 -23 106 -23v-209q-86 0 -145.5 20.5t-114.5 57.5q-153 -106 -346 -106q-252 0 -430 178t-178 430zM209 723q0 -164 119 -283q116 -116 280 -116q84 0 152 30q-69 27 -166 27l2 211 q207 -2 342 -92q70 103 70 223q0 164 -117 281q-115 118 -283 118q-162 0 -280 -118q-119 -119 -119 -281z" />
<glyph unicode="R" horiz-adv-x="759" d="M0 141v1153h209v-2h98q161 0 268 -110q113 -119 113 -269q0 -161 -113 -268q-51 -51 -112 -78l254 -426h-244l-233 391h-31v-391h-209zM209 743h98q71 0 121 50q49 49 49 120q0 69 -49 121q-49 49 -121 49h-98v-340z" />
<glyph unicode="S" horiz-adv-x="790" d="M0 469l207 29q2 -12 8 -31q8 -23 10 -27q28 -47 70 -65q42 -19 81 -19q14 0 27 2q48 9 80 41q31 31 37 80q0 37 -10 60q-16 37 -45 53q-10 12 -43 26q-50 17 -64 21q-27 5 -86 27q-42 14 -98 57q-60 49 -96 123q-30 66 -30 131q0 11 1 22q9 110 90 197q82 82 193 96 q27 4 53 3q82 0 158 -35q96 -47 153 -146l-184 -100q-18 32 -59 55q-40 17 -76 17q-10 0 -19 -1q-39 -6 -67 -34t-31 -68q-3 -31 8 -51q10 -23 37 -47q20 -14 45 -25q38 -13 64 -20q62 -17 86 -27q52 -19 96 -57q70 -55 104 -131q30 -66 30 -137q0 -12 -1 -25 q-12 -121 -94 -209q-81 -87 -205 -102q-29 -4 -58 -4q-89 0 -167 38q-112 53 -164 154q-17 33 -27 61q-7 21 -14 68zM512 1014l184 100z" />
<glyph unicode="T" horiz-adv-x="714" d="M0 1085v209v-209zM0 1085h217v-944h209v944h225v209h-651v-209z" />
<glyph unicode="U" horiz-adv-x="884" d="M10 573q0 -6 0.5 -25.5t1 -27.5t2 -26.5t3.5 -28.5t5 -26t7 -28t9.5 -26.5t12.5 -28.5q53 -108 150 -170q97 -63 217 -63q111 0 200 53q91 52 150 148q27 46 40 100.5t15 90t2 99.5v23v231v426h-211v-426v-231v-23v-32.5v-35.5t-1.5 -30t-4 -33t-8 -26t-12.5 -27 q-28 -48 -74 -72q-45 -26 -96 -26q-56 0 -103 30q-48 29 -73 84q-3 7 -6 15t-5 15t-3.5 17.5t-2.5 16.5t-2 18.5t-1.5 18t-0.5 20v18.5v20.5v19.5v49v192v428h-209v-428v-192q0 -31 -2 -47v-26.5v-27.5zM12 1294h209h-209z" />
<glyph unicode="V" horiz-adv-x="1130" d="M0 1284h229h-229zM0 1284l453 -944l96 -199l94 199l451 944h-230l-315 -663l-320 663h-229z" />
<glyph unicode="W" horiz-adv-x="1609" d="M0 1292h221l236 -633l229 449l94 186l94 -186l230 -449l239 633h222l-346 -921l-84 -226l-111 215l-244 478l-243 -478l-111 -215l-84 226zM1343 1292h222h-222z" />
<glyph unicode="X" horiz-adv-x="1038" d="M0 141h248l241 389l242 -389h248l-367 586l349 557h-248l-224 -358l-223 358h-248l349 -557zM18 1284h248h-248z" />
<glyph unicode="Y" horiz-adv-x="933" d="M0 1284l346 -729v-414h211v424l338 719h-231l-215 -457l-218 457h-231zM557 565l338 719z" />
<glyph unicode="Z" horiz-adv-x="942" d="M-12 143h237h475h86v209h-448l502 942h-236h-465h-80v-209h433zM59 1085v209v-209z" />
<glyph unicode="[" horiz-adv-x="321" d="M10 272v1033q0 110 78 188q80 80 188 80v-211q-22 0 -38 -16q-19 -19 -19 -41v-1033q0 -22 19 -41q16 -16 38 -16v-211q-110 0 -188 78t-78 190z" />
<glyph unicode="\" horiz-adv-x="481" d="M-27 1477h138h-138zM-27 1477h138l381 -1430l-138 -2z" />
<glyph unicode="]" horiz-adv-x="327" d="M45 4v211q25 0 41 16t16 41v1033q0 25 -16 41t-41 16v211q108 0 188 -80t80 -188v-1033q0 -110 -80 -190q-78 -78 -188 -78z" />
<glyph unicode="^" horiz-adv-x="559" d="M0 1153l248 158v-2l2 2l246 -158l-35 -86l-213 86l-213 -86zM35 1067l213 86z" />
<glyph unicode="_" horiz-adv-x="942" d="M0 178v184h864v-184h-864z" />
<glyph unicode="`" horiz-adv-x="417" d="M0 1165l68 150zM0 1165l68 150l299 -172l-43 -96z" />
<glyph unicode="a" d="M18 141l453 959l94 198l97 -196l473 -961h-230l-129 262h-405l-123 -262h-230zM465 600h213l-109 223zM465 600l104 223z" />
<glyph unicode="b" horiz-adv-x="772" d="M0 141h209v2h129q145 0 248 103q102 102 102 246q0 145 -102 247l-8 6q81 94 81 218q0 137 -96 233q-99 96 -233 96h-121v2h-209v-1153zM0 1294h209h-209zM209 352v279h129q60 0 98 -41q41 -41 41 -98q0 -55 -41 -99q-41 -41 -98 -41h-129zM209 844v239h121q50 0 84 -34 q35 -35 35 -86q0 -54 -35 -84q-30 -35 -84 -35h-121z" />
<glyph unicode="c" horiz-adv-x="1185" d="M0 723q0 252 178 430t430 178q147 0 277 -65q129 -67 217 -187l-170 -123q-53 73 -141 121q-83 45 -183 45q-162 0 -280 -118q-119 -119 -119 -281q0 -164 119 -283q116 -116 280 -116q107 0 193 47q89 47 147 129l172 -117q-88 -130 -223 -199q-129 -69 -289 -69 q-252 0 -430 178t-178 430zM948 500l172 -117z" />
<glyph unicode="d" horiz-adv-x="1013" d="M0 141h145h197q117 0 223 44.5t185 123.5t123.5 185t44.5 223q0 239 -168 407q-79 79 -185 123.5t-223 44.5h-133v2h-209v-1153zM0 1294h209h-209zM209 350v733h133q153 0 258 -108q109 -109 109 -258t-109 -258t-258 -109h-133z" />
<glyph unicode="e" horiz-adv-x="702" d="M0 141v1155h627v-209h-418v-270h311v-209h-311v-256h418v-211h-627zM209 817v270v-270z" />
<glyph unicode="f" horiz-adv-x="667" d="M0 141v1155h627v-209h-418v-270h311v-209h-311v-467h-209zM209 817v270v-270z" />
<glyph unicode="g" horiz-adv-x="1282" d="M4 723q0 249 178 430q83 86 194 132t236 46q153 0 277 -65q136 -70 217 -187l-170 -123q-53 73 -141 121q-83 45 -183 45q-165 0 -280 -118q-117 -117 -117 -281q0 -163 117 -283q116 -116 280 -116q173 0 293 120q33 33 58 72l-375 4v209h635v-2q0 -262 -168 -430 q-87 -87 -201 -134.5t-242 -47.5q-258 0 -430 178q-178 181 -178 430zM588 520v209v-209z" />
<glyph unicode="h" horiz-adv-x="856" d="M10 141h211v467h357v-467h208v1153h-208v-477h-357v477h-211v-1153zM10 1294h211h-211z" />
<glyph unicode="i" horiz-adv-x="280" d="M0 141h209v1153h-209v-1153zM0 1294h209h-209z" />
<glyph unicode="j" horiz-adv-x="862" d="M-8 545q0 -171 119 -287q121 -121 288 -121q104 0 199 53q93 51 150 146q24 46 34 80q14 43 19 78q4 31 4 124v29v227v420h-209v-420v-227v-29q0 -73 -4 -98q0 -22 -8 -41q-1 -9 -17 -35q-27 -47 -71 -71q-45 -25 -97 -25q-81 0 -139 58q-59 56 -59 139h-209zM596 1294 h209h-209z" />
<glyph unicode="k" horiz-adv-x="864" d="M0 141h209v328l41 57l297 -385h264l-434 566l405 577h-256l-317 -450v450h-209v-1143zM0 1284h209h-209z" />
<glyph unicode="l" horiz-adv-x="636" d="M0 141h209v2h385v211h-385v940h-209v-1153zM0 1294h209h-209z" />
<glyph unicode="m" horiz-adv-x="1576" d="M0 141l326 920l84 237l108 -225l244 -506l246 506l108 225l84 -237l326 -920h-221l-220 615l-323 -615l-324 615l-217 -615h-221zM0 141h221h-221z" />
<glyph unicode="n" horiz-adv-x="899" d="M0 147h209v633l432 -444l182 -191v256v891h-209v-635l-432 445l-182 190v-256v-889zM614 1292h209h-209z" />
<glyph unicode="o" horiz-adv-x="1280" d="M0 723q0 252 178 430t430 178t430 -178q179 -179 179 -430t-179 -430q-178 -178 -430 -178t-430 178t-178 430zM209 723q0 -164 119 -283q116 -116 280 -116q167 0 283 116q117 117 117 283q0 164 -117 281q-118 118 -283 118q-162 0 -280 -118q-119 -119 -119 -281z" />
<glyph unicode="p" horiz-adv-x="731" d="M0 141h209v391h98q155 0 268 113t113 268q0 150 -113 269q-107 110 -268 110h-98v2h-209v-1153zM0 1294h209h-209zM209 743v340h98q72 0 121 -49q49 -52 49 -121q0 -71 -49 -120q-50 -50 -121 -50h-98z" />
<glyph unicode="q" horiz-adv-x="1269" d="M0 723q0 252 178 430t430 178t430 -178q179 -179 179 -430q0 -200 -109 -348q51 -23 106 -23v-209q-86 0 -145.5 20.5t-114.5 57.5q-153 -106 -346 -106q-252 0 -430 178t-178 430zM209 723q0 -164 119 -283q116 -116 280 -116q84 0 152 30q-69 27 -166 27l2 211 q207 -2 342 -92q70 103 70 223q0 164 -117 281q-115 118 -283 118q-162 0 -280 -118q-119 -119 -119 -281z" />
<glyph unicode="r" horiz-adv-x="759" d="M0 141v1153h209v-2h98q161 0 268 -110q113 -119 113 -269q0 -161 -113 -268q-51 -51 -112 -78l254 -426h-244l-233 391h-31v-391h-209zM209 743h98q71 0 121 50q49 49 49 120q0 69 -49 121q-49 49 -121 49h-98v-340z" />
<glyph unicode="s" horiz-adv-x="790" d="M0 469l207 29q2 -12 8 -31q8 -23 10 -27q28 -47 70 -65q42 -19 81 -19q14 0 27 2q48 9 80 41q31 31 37 80q0 37 -10 60q-16 37 -45 53q-10 12 -43 26q-50 17 -64 21q-27 5 -86 27q-42 14 -98 57q-60 49 -96 123q-30 66 -30 131q0 11 1 22q9 110 90 197q82 82 193 96 q27 4 53 3q82 0 158 -35q96 -47 153 -146l-184 -100q-18 32 -59 55q-40 17 -76 17q-10 0 -19 -1q-39 -6 -67 -34t-31 -68q-3 -31 8 -51q10 -23 37 -47q20 -14 45 -25q38 -13 64 -20q62 -17 86 -27q52 -19 96 -57q70 -55 104 -131q30 -66 30 -137q0 -12 -1 -25 q-12 -121 -94 -209q-81 -87 -205 -102q-29 -4 -58 -4q-89 0 -167 38q-112 53 -164 154q-17 33 -27 61q-7 21 -14 68zM512 1014l184 100z" />
<glyph unicode="t" horiz-adv-x="714" d="M0 1085v209v-209zM0 1085h217v-944h209v944h225v209h-651v-209z" />
<glyph unicode="u" horiz-adv-x="884" d="M10 573q0 -6 0.5 -25.5t1 -27.5t2 -26.5t3.5 -28.5t5 -26t7 -28t9.5 -26.5t12.5 -28.5q53 -108 150 -170q97 -63 217 -63q111 0 200 53q91 52 150 148q27 46 40 100.5t15 90t2 99.5v23v231v426h-211v-426v-231v-23v-32.5v-35.5t-1.5 -30t-4 -33t-8 -26t-12.5 -27 q-28 -48 -74 -72q-45 -26 -96 -26q-56 0 -103 30q-48 29 -73 84q-3 7 -6 15t-5 15t-3.5 17.5t-2.5 16.5t-2 18.5t-1.5 18t-0.5 20v18.5v20.5v19.5v49v192v428h-209v-428v-192q0 -31 -2 -47v-26.5v-27.5zM12 1294h209h-209z" />
<glyph unicode="v" horiz-adv-x="1130" d="M0 1284h229h-229zM0 1284l453 -944l96 -199l94 199l451 944h-230l-315 -663l-320 663h-229z" />
<glyph unicode="w" horiz-adv-x="1609" d="M0 1292h221l236 -633l229 449l94 186l94 -186l230 -449l239 633h222l-346 -921l-84 -226l-111 215l-244 478l-243 -478l-111 -215l-84 226zM1343 1292h222h-222z" />
<glyph unicode="x" horiz-adv-x="1013" d="M0 141h248l241 389l242 -389h248l-367 586l349 557h-248l-224 -358l-223 358h-248l349 -557zM18 1284h248h-248z" />
<glyph unicode="y" horiz-adv-x="933" d="M0 1284l346 -729v-414h211v424l338 719h-231l-215 -457l-218 457h-231zM557 565l338 719z" />
<glyph unicode="z" horiz-adv-x="942" d="M-12 143h237h475h86v209h-448l502 942h-236h-465h-80v-209h433zM59 1085v209v-209z" />
<glyph unicode="{" horiz-adv-x="468" d="M2 731q1 2 35 57l67 103v362q0 114 78 189q80 80 189 80v-211q-17 0 -41 -17q-17 -17 -17 -41v-393v-31l-16 -24l-47 -74l47 -69l16 -27v-31v-383q0 -24 17 -41q22 -16 41 -16v-211q-108 0 -189 78q-78 78 -78 190v352l-65 101q-25 41 -37 57z" />
<glyph unicode="}" horiz-adv-x="397" d="M0 -47v211q25 0 41 16t16 41v383v31l19 27q21 34 45 69l-47 74l-17 24v31v393q0 25 -16 41q-17 17 -41 17v211q108 0 188 -80t80 -189v-362l66 -103q26 -43 37 -57q-12 -16 -37 -57l-66 -101v-352q0 -110 -80 -190q-78 -78 -188 -78z" />
<glyph unicode="~" horiz-adv-x="591" d="M33 1087q39 35 73.5 54t58 25t53.5 -0.5t45 -13.5t46 -24q34 -16 52 -14q36 5 81 53l101 -98q-36 -36 -68 -60t-60 -33t-48.5 -12t-45.5 5.5t-39 15t-40 21.5q-18 11 -30.5 15t-35.5 -3t-49 -33zM33 1087l94 -102z" />
<glyph unicode="&#xa2;" horiz-adv-x="636" d="M0 963q0 131 92 223q77 77 184 92l9 68h108l-8 -72q43 -8 80 -29q72 -38 115 -102l-138 -92q-22 32 -55 49q-2 2 -20 8l-35 -299q32 4 57 16q30 13 53 43l133 -98q-50 -63 -114 -94q-67 -33 -144 -33h-4l-6 -49h-108l8 70q-67 25 -115 73q-92 92 -92 226zM164 963 q0 -57 45 -109l18 -14l29 262q-28 -14 -47 -33q-45 -52 -45 -106zM442 868l133 -98z" />
<glyph unicode="&#xa8;" horiz-adv-x="544" d="M4 1231q0 43 31.5 74.5t75.5 31.5q43 0 74.5 -31.5t31.5 -74.5q0 -44 -31.5 -75.5t-74.5 -31.5q-44 0 -75.5 31.5t-31.5 75.5zM295 1223q0 44 31 75t75 31t75.5 -31t31.5 -75t-31.5 -75.5t-75.5 -31.5t-75 31.5t-31 75.5z" />
<glyph unicode="&#xad;" horiz-adv-x="741" d="M0 403v185h659v-185h-659z" />
<glyph unicode="&#xb0;" horiz-adv-x="452" d="M0 1120q0 83 59 142t142 59q84 0 143 -59t59 -142q0 -84 -59 -143t-143 -59q-83 0 -142 59t-59 143zM139 1120q0 -24 19 -43q18 -18 43 -18q28 0 43 18q18 15 18 43q0 25 -18 43q-19 19 -43 19q-21 0 -43 -19q-19 -22 -19 -43z" />
<glyph unicode="&#xb4;" horiz-adv-x="546" d="M0 1143l43 -96l324 118l-68 150zM299 1315l68 -150z" />
<glyph unicode="&#xba;" horiz-adv-x="452" d="M0 1120q0 83 59 142t142 59q84 0 143 -59t59 -142q0 -84 -59 -143t-143 -59q-83 0 -142 59t-59 143zM139 1120q0 -24 19 -43q18 -18 43 -18q28 0 43 18q18 15 18 43q0 25 -18 43q-19 19 -43 19q-21 0 -43 -19q-19 -22 -19 -43z" />
<glyph unicode="&#xc0;" d="M18 141l453 959l94 198l97 -196l473 -961h-230l-129 262h-405l-123 -262h-230zM274 1522l68 149zM274 1522l68 149l297 -174l-43 -94zM465 600l104 223zM465 600h213l-109 223z" />
<glyph unicode="&#xc1;" d="M18 141h230l123 262h405l129 -262h230l-473 961l-97 196l-94 -198zM465 600l104 223zM465 600l104 223l109 -223h-213zM498 1477l41 -97l323 121l-67 148zM795 1649l67 -148z" />
<glyph unicode="&#xc2;" d="M18 141l453 959l94 198l97 -196l473 -961h-230l-129 262h-405l-123 -262h-230zM303 1391l248 155v-2l2 2l248 -155l-37 -86l-213 86l-213 -86zM338 1305l213 86zM465 600l104 223zM465 600h213l-109 223z" />
<glyph unicode="&#xc3;" d="M18 141l453 959l94 198l97 -196l473 -961h-230l-129 262h-405l-123 -262h-230zM303 1460q32 29 60.5 48t55 24.5t45 7.5t43.5 -6.5t36.5 -14t36.5 -18.5q22 -12 34.5 -15.5t39.5 7.5t61 45l98 -96q-43 -43 -81 -67t-65 -32.5t-57.5 -3t-48.5 13.5t-49 25 q-18 11 -29.5 14.5t-35 -3.5t-50.5 -33zM303 1460l94 -104zM465 600h213l-109 223zM465 600l104 223z" />
<glyph unicode="&#xc4;" d="M18 141l453 959l94 198l97 -196l473 -961h-230l-129 262h-405l-123 -262h-230zM309 1401q0 43 31.5 74.5t75.5 31.5t75 -31.5t31 -74.5q0 -44 -31 -75.5t-75 -31.5t-75.5 31.5t-31.5 75.5zM465 600h213l-109 223zM465 600l104 223zM600 1393q0 44 31.5 75t75.5 31t75 -31 t31 -75t-31 -75.5t-75 -31.5t-75.5 31.5t-31.5 75.5z" />
<glyph unicode="&#xc5;" d="M18 141l453 959l94 198l97 -196l473 -961h-230l-129 262h-405l-123 -262h-230zM369 1481q0 82 59 141t143 59q83 0 142 -59q59 -56 59 -141q0 -86 -59 -142q-59 -59 -142 -59q-84 0 -143 59t-59 142zM465 600h213l-109 223zM465 600l104 223zM510 1481q0 -28 18 -43 q16 -19 43 -19q24 0 43 19t19 43t-19 43q-18 18 -43 18q-28 0 -43 -18q-18 -15 -18 -43z" />
<glyph unicode="&#xc6;" horiz-adv-x="1523" d="M-18 193l766 1019l102 136h627v-209h-418v-271h311v-209h-311v-256h418v-210h-627v278h-377l-209 -278h-282zM633 680h217v278zM1059 868v271v-271z" />
<glyph unicode="&#xc7;" horiz-adv-x="1185" d="M0 723q0 252 178 430t430 178q147 0 277 -65q129 -67 217 -187l-170 -123q-53 73 -141 121q-83 45 -183 45q-162 0 -280 -118q-119 -119 -119 -281q0 -164 119 -283q116 -116 280 -116q107 0 193 47q89 47 147 129l172 -117q-88 -130 -223 -199q-129 -69 -289 -69 q-252 0 -430 178t-178 430zM426 -248l70 123q3 -3 18 -6l45 -8q7 0 18.5 -1t18.5 -1q23 0 31 2q20 3 28 14q9 6 9 16q0 8 -7 15t-24 14l-21 4h-20l-84 -2l12 84q2 10 2 51v86l140 2q0 -16 1 -45.5t1 -42.5q2 -2 8 -4q56 -15 92 -57q39 -45 39 -102q0 -67 -45 -115 q-44 -44 -109 -55q-15 -5 -55 -5q-11 0 -51 5q-41 5 -62 10q-33 9 -55 18zM522 143l140 2zM948 500l172 -117z" />
<glyph unicode="&#xc8;" horiz-adv-x="702" d="M0 141v1155h627v-209h-418v-270h311v-209h-311v-256h418v-211h-627zM74 1454l67 150zM74 1454l67 150l299 -174l-43 -95zM209 817v270v-270z" />
<glyph unicode="&#xc9;" horiz-adv-x="702" d="M0 141h627v211h-418v256h311v209h-311v270h418v209h-627v-1155zM209 817v270v-270zM244 1454l43 -96l323 121l-67 147zM543 1626l67 -147z" />
<glyph unicode="&#xca;" horiz-adv-x="702" d="M0 141v1155h627v-209h-418v-270h311v-209h-311v-256h418v-211h-627zM61 1419l248 158v-4v4l248 -158l-35 -86l-213 86l-213 -86zM96 1333l213 86zM209 817v270v-270z" />
<glyph unicode="&#xcb;" horiz-adv-x="702" d="M0 141v1155h627v-209h-418v-270h311v-209h-311v-256h418v-211h-627zM70 1454q0 44 31 75.5t75 31.5t75.5 -31.5t31.5 -75.5t-31.5 -75t-75.5 -31t-75 31t-31 75zM209 817v270v-270zM360 1446q0 44 31.5 76t75.5 32t75 -32t31 -76q0 -43 -31 -75t-75 -32t-75.5 32 t-31.5 75z" />
<glyph unicode="&#xcc;" horiz-adv-x="280" d="M-129 1477l68 149zM-129 1477l68 149l299 -174l-43 -94zM0 141v1153h209v-1153h-209zM0 1294h209h-209z" />
<glyph unicode="&#xcd;" horiz-adv-x="280" d="M0 141h209v1153h-209v-1153zM0 1294h209h-209zM23 1432l43 -97l323 121l-67 148zM322 1604l67 -148z" />
<glyph unicode="&#xce;" horiz-adv-x="280" d="M-141 1419l245 158l2 -2v2l248 -158l-35 -86l-213 86l-212 -86zM-106 1333l212 86zM0 141v1153h209v-1153h-209zM0 1294h209h-209z" />
<glyph unicode="&#xcf;" horiz-adv-x="280" d="M-137 1460q0 43 31 75t75 32q43 0 75 -32t32 -75q0 -44 -32 -75t-75 -31q-44 0 -75 31t-31 75zM0 141v1153h209v-1153h-209zM0 1294h209h-209zM154 1452q0 44 31 75.5t75 31.5t75.5 -31.5t31.5 -75.5t-31.5 -75t-75.5 -31t-75 31t-31 75z" />
<glyph unicode="&#xd1;" horiz-adv-x="899" d="M0 147v889v256l182 -190l432 -445v635h209v-891v-256l-182 191l-432 444v-633h-209zM143 1466q32 29 60.5 48t55 24.5t45 7.5t43.5 -6.5t36.5 -14t36.5 -18.5q22 -12 34.5 -15.5t39.5 7.5t61 45l98 -96q-43 -43 -81 -67t-65 -32.5t-57.5 -3t-48.5 13.5t-49 25 q-18 11 -29 14.5t-34.5 -3.5t-50.5 -33zM143 1466l95 -104zM614 1292h209h-209z" />
<glyph unicode="&#xd2;" horiz-adv-x="1280" d="M0 723q0 252 178 430t430 178t430 -178q179 -179 179 -430t-179 -430q-178 -178 -430 -178t-430 178t-178 430zM209 723q0 -164 119 -283q116 -116 280 -116q167 0 283 116q117 117 117 283q0 164 -117 281q-118 118 -283 118q-162 0 -280 -118q-119 -119 -119 -281z M340 1536l68 150zM340 1536l68 150l299 -175l-43 -94z" />
<glyph unicode="&#xd3;" horiz-adv-x="1280" d="M0 723q0 -252 178 -430t430 -178t430 178q179 179 179 430t-179 430q-178 178 -430 178t-430 -178t-178 -430zM209 723q0 162 119 281q118 118 280 118q165 0 283 -118q117 -117 117 -281q0 -166 -117 -283q-116 -116 -283 -116q-164 0 -280 116q-119 119 -119 283z M504 1483l43 -97l323 121l-67 148zM803 1655l67 -148z" />
<glyph unicode="&#xd4;" horiz-adv-x="1280" d="M0 723q0 252 178 430t430 178t430 -178q179 -179 179 -430t-179 -430q-178 -178 -430 -178t-430 178t-178 430zM209 723q0 -164 119 -283q116 -116 280 -116q167 0 283 116q117 117 117 283q0 164 -117 281q-118 118 -283 118q-162 0 -280 -118q-119 -119 -119 -281z M356 1466l248 156v-2l2 2l246 -156l-35 -86l-213 84l-213 -84zM391 1380l213 84z" />
<glyph unicode="&#xd5;" horiz-adv-x="1280" d="M0 723q0 252 178 430t430 178t430 -178q179 -179 179 -430t-179 -430q-178 -178 -430 -178t-430 178t-178 430zM209 723q0 -164 119 -283q116 -116 280 -116q167 0 283 116q117 117 117 283q0 164 -117 281q-118 118 -283 118q-162 0 -280 -118q-119 -119 -119 -281z M350 1493q0 44 31.5 75t75.5 31t75 -31t31 -75t-31 -75.5t-75 -31.5t-75.5 31.5t-31.5 75.5zM641 1485q0 44 31.5 75t75.5 31t75 -31t31 -75q0 -43 -31 -75t-75 -32t-75.5 32t-31.5 75z" />
<glyph unicode="&#xd6;" horiz-adv-x="1280" d="M0 723q0 252 178 430t430 178t430 -178q179 -179 179 -430t-179 -430q-178 -178 -430 -178t-430 178t-178 430zM209 723q0 -164 119 -283q116 -116 280 -116q167 0 283 116q117 117 117 283q0 164 -117 281q-118 118 -283 118q-162 0 -280 -118q-119 -119 -119 -281z M356 1479q0 43 31.5 74.5t75.5 31.5t75 -31.5t31 -74.5q0 -45 -31 -77t-75 -32t-75.5 32.5t-31.5 76.5zM647 1470q0 44 31.5 75.5t75.5 31.5t75 -31.5t31 -75.5t-31 -75t-75 -31t-75.5 31t-31.5 75z" />
<glyph unicode="&#xd8;" horiz-adv-x="1282" d="M0 774q0 249 178 430q172 178 430 178q26 0 80 -4l33 125h137l-41 -157q125 -46 221 -142q181 -181 181 -430q0 -242 -181 -430q-175 -178 -430 -178q-58 0 -102 8l-27 -102l-137 2l37 137q-120 49 -201 133q-178 185 -178 430zM211 774q0 -165 117 -282q40 -40 104 -76 l201 755q-4 0 -12.5 1.5t-12.5 1.5q-161 0 -280 -119q-117 -117 -117 -281zM559 379q32 -4 49 -4q166 0 283 117q117 120 117 282q0 164 -117 281q-63 63 -129 88z" />
<glyph unicode="&#xd9;" horiz-adv-x="884" d="M10 567v31.5v28.5q2 16 2 47v192v428h209v-428v-192v-49v-19.5v-20.5v-18.5t0.5 -20t1.5 -18t2 -18.5t2.5 -16.5t3.5 -17.5t5 -15t6 -15q25 -55 73 -84q47 -30 103 -30q51 0 96 26q46 24 74 72q7 12 12.5 27t8 26t4 33t1.5 30v35.5v32.5v23v231v426h211v-426v-231v-23 q0 -64 -2 -99.5t-15 -90t-40 -100.5q-59 -96 -150 -148q-89 -53 -200 -53q-120 0 -217 63q-97 62 -150 170q-7 15 -13 29.5t-10 32.5t-7.5 29t-5.5 32t-3 28.5t-1.5 31.5t-0.5 28zM12 1294h209h-209zM162 1477l67 147zM162 1477l67 147l299 -172l-43 -94z" />
<glyph unicode="&#xda;" horiz-adv-x="884" d="M10 573q0 -6 0.5 -25.5t1 -27.5t2 -26.5t3.5 -28.5t5 -26t7 -28t9.5 -26.5t12.5 -28.5q53 -108 150 -170q97 -63 217 -63q111 0 200 53q91 52 150 148q27 46 40 100.5t15 90t2 99.5v23v231v426h-211v-426v-231v-23v-32.5v-35.5t-1.5 -30t-4 -33t-8 -26t-12.5 -27 q-28 -48 -74 -72q-45 -26 -96 -26q-56 0 -103 30q-48 29 -73 84q-3 7 -6 15t-5 15t-3.5 17.5t-2.5 16.5t-2 18.5t-1.5 18t-0.5 20v18.5v20.5v19.5v49v192v428h-209v-428v-192q0 -31 -2 -47v-26.5v-27.5zM12 1294h209h-209zM268 1448l41 -96l324 118l-68 150zM565 1620 l68 -150z" />
<glyph unicode="&#xdb;" horiz-adv-x="884" d="M10 567v31.5v28.5q2 16 2 47v192v428h209v-428v-192v-49v-19.5v-20.5v-18.5t0.5 -20t1.5 -18t2 -18.5t2.5 -16.5t3.5 -17.5t5 -15t6 -15q25 -55 73 -84q47 -30 103 -30q51 0 96 26q46 24 74 72q7 12 12.5 27t8 26t4 33t1.5 30v35.5v32.5v23v231v426h211v-426v-231v-23 q0 -64 -2 -99.5t-15 -90t-40 -100.5q-59 -96 -150 -148q-89 -53 -200 -53q-120 0 -217 63q-97 62 -150 170q-7 15 -13 29.5t-10 32.5t-7.5 29t-5.5 32t-3 28.5t-1.5 31.5t-0.5 28zM12 1294h209h-209zM164 1450l248 158v-2l2 2l245 -158l-34 -86l-213 86l-213 -86zM199 1364 l213 86z" />
<glyph unicode="&#xdc;" horiz-adv-x="884" d="M10 567v31.5v28.5q2 16 2 47v192v428h209v-428v-192v-49v-19.5v-20.5v-18.5t0.5 -20t1.5 -18t2 -18.5t2.5 -16.5t3.5 -17.5t5 -15t6 -15q25 -55 73 -84q47 -30 103 -30q51 0 96 26q46 24 74 72q7 12 12.5 27t8 26t4 33t1.5 30v35.5v32.5v23v231v426h211v-426v-231v-23 q0 -64 -2 -99.5t-15 -90t-40 -100.5q-59 -96 -150 -148q-89 -53 -200 -53q-120 0 -217 63q-97 62 -150 170q-7 15 -13 29.5t-10 32.5t-7.5 29t-5.5 32t-3 28.5t-1.5 31.5t-0.5 28zM12 1294h209h-209zM129 1468q0 43 32 75t75 32q44 0 75 -32t31 -75q0 -44 -31 -76t-75 -32 q-43 0 -75 32t-32 76zM420 1460q0 44 32 75.5t76 31.5q43 0 75 -31.5t32 -75.5t-32 -75t-75 -31q-44 0 -76 31t-32 75z" />
<glyph unicode="&#xdd;" horiz-adv-x="933" d="M0 1284l346 -729v-414h211v424l338 719h-231l-215 -457l-218 457h-231zM356 1417l43 -96l324 119l-68 149zM557 565l338 719zM655 1589l68 -149z" />
<glyph unicode="&#xdf;" horiz-adv-x="749" d="M10 963q0 137 99 233q96 96 231 96q137 0 233 -96q99 -99 99 -233q0 -123 -84 -220l4 -4q106 -106 106 -247q0 -144 -102 -246q-103 -103 -246 -103v209q58 0 99 41q40 40 40 99q0 55 -43 98q-46 43 -106 43v211q51 0 86 35t35 84q0 51 -35 86q-34 34 -86 34 q-50 0 -84 -34q-35 -35 -35 -86v-889h-209zM12 74h209h-209zM340 633v104v107v-211z" />
<glyph unicode="&#xe0;" d="M18 141l453 959l94 198l97 -196l473 -961h-230l-129 262h-405l-123 -262h-230zM268 1499l66 150zM268 1499l66 150l299 -174l-43 -95zM465 600l104 223zM465 600h213l-109 223z" />
<glyph unicode="&#xe1;" d="M18 141h230l123 262h405l129 -262h230l-473 961l-97 196l-94 -198zM465 600l104 223zM465 600l104 223l109 -223h-213zM510 1450l43 -94l324 119l-68 149zM809 1624l68 -149z" />
<glyph unicode="&#xe2;" d="M18 141l453 959l94 198l97 -196l473 -961h-230l-129 262h-405l-123 -262h-230zM311 1354l248 155v-2v2l248 -155l-35 -86l-213 86l-213 -86zM346 1268l213 86zM465 600l104 223zM465 600h213l-109 223z" />
<glyph unicode="&#xe3;" d="M18 141l453 959l94 198l97 -196l473 -961h-230l-129 262h-405l-123 -262h-230zM295 1464q1 0 4 -4q39 36 74.5 55t59 25.5t54.5 -0.5t44 -13t44 -22q22 -11 34.5 -15t41 7.5t60.5 46.5l98 -98q-43 -43 -81 -67t-65 -32t-58 -2.5t-49 14t-48 25.5q-17 10 -29.5 13.5 t-35.5 -3.5t-50 -32q-60 28 -92 84q-10 18 -6 18zM465 600h213l-109 223zM465 600l104 223z" />
<glyph unicode="&#xe4;" d="M18 141l453 959l94 198l97 -196l473 -961h-230l-129 262h-405l-123 -262h-230zM309 1401q0 43 31.5 74.5t75.5 31.5t75 -31.5t31 -74.5q0 -44 -31 -75.5t-75 -31.5t-75.5 31.5t-31.5 75.5zM465 600h213l-109 223zM465 600l104 223zM600 1393q0 44 31.5 75t75.5 31t75 -31 t31 -75t-31 -75.5t-75 -31.5t-75.5 31.5t-31.5 75.5z" />
<glyph unicode="&#xe5;" d="M18 141l453 959l94 198l97 -196l473 -961h-230l-129 262h-405l-123 -262h-230zM375 1489q0 82 59 141q60 60 144 60q81 0 141 -60q59 -56 59 -141t-59 -141q-60 -60 -141 -60q-84 0 -144 60q-59 59 -59 141zM465 600h213l-109 223zM465 600l104 223zM516 1489 q0 -27 19 -43q16 -19 43 -19q24 0 43 19q18 18 18 43t-18 43t-43 18q-28 0 -43 -18q-19 -16 -19 -43z" />
<glyph unicode="&#xe6;" horiz-adv-x="1523" d="M-18 193l766 1019l102 136h627v-209h-418v-271h311v-209h-311v-256h418v-210h-627v278h-377l-209 -278h-282zM633 680h217v278zM1059 868v271v-271z" />
<glyph unicode="&#xe7;" horiz-adv-x="1185" d="M0 723q0 252 178 430t430 178q147 0 277 -65q129 -67 217 -187l-170 -123q-53 73 -141 121q-83 45 -183 45q-162 0 -280 -118q-119 -119 -119 -281q0 -164 119 -283q116 -116 280 -116q107 0 193 47q89 47 147 129l172 -117q-88 -130 -223 -199q-129 -69 -289 -69 q-252 0 -430 178t-178 430zM426 -248l70 123q3 -3 18 -6l45 -8q7 0 18.5 -1t18.5 -1q23 0 31 2q20 3 28 14q9 6 9 16q0 8 -7 15t-24 14l-21 4h-20l-84 -2l12 84q2 10 2 51v86l140 2q0 -16 1 -45.5t1 -42.5q2 -2 8 -4q56 -15 92 -57q39 -45 39 -102q0 -67 -45 -115 q-44 -44 -109 -55q-15 -5 -55 -5q-11 0 -51 5q-41 5 -62 10q-33 9 -55 18zM522 143l140 2zM948 500l172 -117z" />
<glyph unicode="&#xe8;" horiz-adv-x="702" d="M0 141v1155h627v-209h-418v-270h311v-209h-311v-256h418v-211h-627zM90 1456l66 150zM90 1456l66 150l299 -174l-43 -95zM209 817v270v-270z" />
<glyph unicode="&#xe9;" horiz-adv-x="702" d="M0 141h627v211h-418v256h311v209h-311v270h418v209h-627v-1155zM209 817v270v-270zM246 1446l43 -96l323 118l-67 150zM545 1618l67 -150z" />
<glyph unicode="&#xea;" horiz-adv-x="702" d="M0 141v1155h627v-209h-418v-270h311v-209h-311v-256h418v-211h-627zM80 1421l248 156l2 -2v2l248 -156l-37 -86l-211 86l-213 -86zM117 1335l213 86zM209 817v270v-270z" />
<glyph unicode="&#xeb;" horiz-adv-x="702" d="M0 141v1155h627v-209h-418v-270h311v-209h-311v-256h418v-211h-627zM70 1485q0 43 31 74.5t75 31.5t75.5 -31.5t31.5 -74.5q0 -44 -31.5 -75.5t-75.5 -31.5t-75 31.5t-31 75.5zM209 817v270v-270zM360 1477q0 44 32 75t75 31q44 0 75 -31t31 -75t-31 -75.5t-75 -31.5 q-43 0 -75 31.5t-32 75.5z" />
<glyph unicode="&#xec;" horiz-adv-x="280" d="M-147 1485l65 149zM-147 1485l65 149l299 -174l-43 -94zM0 141v1153h209v-1153h-209zM0 1294h209h-209z" />
<glyph unicode="&#xed;" horiz-adv-x="280" d="M0 141h209v1153h-209v-1153zM0 1294h209h-209zM59 1438l43 -95l322 119l-66 150zM358 1612l66 -150z" />
<glyph unicode="&#xee;" horiz-adv-x="280" d="M-145 1389l247 157v-4v4l248 -157l-35 -86l-213 86l-213 -86zM-111 1303l213 86zM0 141v1153h209v-1153h-209zM0 1294h209h-209z" />
<glyph unicode="&#xef;" horiz-adv-x="280" d="M-152 1475q0 43 31.5 74.5t75.5 31.5q43 0 74.5 -31.5t31.5 -74.5q0 -44 -31.5 -75.5t-74.5 -31.5q-44 0 -75.5 31.5t-31.5 75.5zM0 141v1153h209v-1153h-209zM0 1294h209h-209zM139 1466q0 44 31.5 75.5t75.5 31.5t75 -31.5t31 -75.5t-31 -75t-75 -31t-75.5 31t-31.5 75 z" />
<glyph unicode="&#xf1;" horiz-adv-x="899" d="M0 147v889v256l182 -190l432 -445v635h209v-891v-256l-182 191l-432 444v-633h-209zM143 1470q39 35 73.5 54t58.5 25t54 -0.5t45 -13.5t46 -24q34 -16 52 -14q35 4 81 53l100 -98q-36 -36 -68 -60t-60 -33t-48.5 -12t-45.5 5.5t-39 15t-40 21.5q-18 11 -30 15t-35 -3 t-49 -33zM143 1470l95 -102zM614 1292h209h-209z" />
<glyph unicode="&#xf2;" horiz-adv-x="1280" d="M0 723q0 252 178 430t430 178t430 -178q179 -179 179 -430t-179 -430q-178 -178 -430 -178t-430 178t-178 430zM209 723q0 -164 119 -283q116 -116 280 -116q167 0 283 116q117 117 117 283q0 164 -117 281q-118 118 -283 118q-162 0 -280 -118q-119 -119 -119 -281z M319 1522l68 149zM319 1522l68 149l299 -174l-43 -94z" />
<glyph unicode="&#xf3;" horiz-adv-x="1280" d="M0 723q0 -252 178 -430t430 -178t430 178q179 179 179 430t-179 430q-178 178 -430 178t-430 -178t-178 -430zM209 723q0 162 119 281q118 118 280 118q165 0 283 -118q117 -117 117 -281q0 -166 -117 -283q-116 -116 -283 -116q-164 0 -280 116q-119 119 -119 283z M504 1446l43 -94l323 118l-67 148zM803 1618l67 -148z" />
<glyph unicode="&#xf4;" horiz-adv-x="1280" d="M0 723q0 252 178 430t430 178t430 -178q179 -179 179 -430t-179 -430q-178 -178 -430 -178t-430 178t-178 430zM209 723q0 -164 119 -283q116 -116 280 -116q167 0 283 116q117 117 117 283q0 164 -117 281q-118 118 -283 118q-162 0 -280 -118q-119 -119 -119 -281z" />
<glyph unicode="&#xf5;" horiz-adv-x="1280" d="M0 723q0 252 178 430t430 178t430 -178q179 -179 179 -430t-179 -430q-178 -178 -430 -178t-430 178t-178 430zM209 723q0 -164 119 -283q116 -116 280 -116q167 0 283 116q117 117 117 283q0 164 -117 281q-118 118 -283 118q-162 0 -280 -118q-119 -119 -119 -281z M352 1493q39 35 73.5 54t58.5 25t54 -0.5t45 -13.5t46 -24q34 -16 52 -14q35 4 81 53l100 -98q-43 -43 -82 -67.5t-65.5 -33t-58 -2t-48 14.5t-47.5 26q-22 11 -32.5 14.5t-33 -3.5t-49.5 -33zM352 1493l94 -102z" />
<glyph unicode="&#xf6;" horiz-adv-x="1280" d="M0 723q0 252 178 430t430 178t430 -178q179 -179 179 -430t-179 -430q-178 -178 -430 -178t-430 178t-178 430zM209 723q0 -164 119 -283q116 -116 280 -116q167 0 283 116q117 117 117 283q0 164 -117 281q-118 118 -283 118q-162 0 -280 -118q-119 -119 -119 -281z M342 1507q0 43 31.5 75t75.5 32t75 -32t31 -75q0 -44 -31 -75t-75 -31t-75.5 31t-31.5 75zM633 1499q0 44 31 75.5t75 31.5t75.5 -31.5t31.5 -75.5t-31.5 -75t-75.5 -31t-75 31t-31 75z" />
<glyph unicode="&#xf8;" horiz-adv-x="1282" d="M0 774q0 249 178 430q172 178 430 178q26 0 80 -4l33 125h137l-41 -157q125 -46 221 -142q181 -181 181 -430q0 -242 -181 -430q-175 -178 -430 -178q-58 0 -102 8l-27 -102l-137 2l37 137q-120 49 -201 133q-178 185 -178 430zM211 774q0 -165 117 -282q40 -40 104 -76 l201 755q-4 0 -12.5 1.5t-12.5 1.5q-161 0 -280 -119q-117 -117 -117 -281zM559 379q32 -4 49 -4q166 0 283 117q117 120 117 282q0 164 -117 281q-63 63 -129 88z" />
<glyph unicode="&#xf9;" horiz-adv-x="884" d="M10 567v31.5v28.5q2 16 2 47v192v428h209v-428v-192v-49v-19.5v-20.5v-18.5t0.5 -20t1.5 -18t2 -18.5t2.5 -16.5t3.5 -17.5t5 -15t6 -15q25 -55 73 -84q47 -30 103 -30q51 0 96 26q46 24 74 72q7 12 12.5 27t8 26t4 33t1.5 30v35.5v32.5v23v231v426h211v-426v-231v-23 q0 -64 -2 -99.5t-15 -90t-40 -100.5q-59 -96 -150 -148q-89 -53 -200 -53q-120 0 -217 63q-97 62 -150 170q-7 15 -13 29.5t-10 32.5t-7.5 29t-5.5 32t-3 28.5t-1.5 31.5t-0.5 28zM12 1294h209h-209zM119 1456l65 148zM119 1456l65 148l299 -172l-43 -95z" />
<glyph unicode="&#xfa;" horiz-adv-x="884" d="M10 573q0 -6 0.5 -25.5t1 -27.5t2 -26.5t3.5 -28.5t5 -26t7 -28t9.5 -26.5t12.5 -28.5q53 -108 150 -170q97 -63 217 -63q111 0 200 53q91 52 150 148q27 46 40 100.5t15 90t2 99.5v23v231v426h-211v-426v-231v-23v-32.5v-35.5t-1.5 -30t-4 -33t-8 -26t-12.5 -27 q-28 -48 -74 -72q-45 -26 -96 -26q-56 0 -103 30q-48 29 -73 84q-3 7 -6 15t-5 15t-3.5 17.5t-2.5 16.5t-2 18.5t-1.5 18t-0.5 20v18.5v20.5v19.5v49v192v428h-209v-428v-192q0 -31 -2 -47v-26.5v-27.5zM12 1294h209h-209zM274 1454l43 -96l322 119l-66 149zM573 1626 l66 -149z" />
<glyph unicode="&#xfb;" horiz-adv-x="884" d="M10 567v31.5v28.5q2 16 2 47v192v428h209v-428v-192v-49v-19.5v-20.5v-18.5t0.5 -20t1.5 -18t2 -18.5t2.5 -16.5t3.5 -17.5t5 -15t6 -15q25 -55 73 -84q47 -30 103 -30q51 0 96 26q46 24 74 72q7 12 12.5 27t8 26t4 33t1.5 30v35.5v32.5v23v231v426h211v-426v-231v-23 q0 -64 -2 -99.5t-15 -90t-40 -100.5q-59 -96 -150 -148q-89 -53 -200 -53q-120 0 -217 63q-97 62 -150 170q-7 15 -13 29.5t-10 32.5t-7.5 29t-5.5 32t-3 28.5t-1.5 31.5t-0.5 28zM12 1294h209h-209zM156 1452l245 156l2 -2v2l248 -156l-35 -88l-213 86l-213 -86zM190 1364 l213 86z" />
<glyph unicode="&#xfc;" horiz-adv-x="884" d="M10 567v31.5v28.5q2 16 2 47v192v428h209v-428v-192v-49v-19.5v-20.5v-18.5t0.5 -20t1.5 -18t2 -18.5t2.5 -16.5t3.5 -17.5t5 -15t6 -15q25 -55 73 -84q47 -30 103 -30q51 0 96 26q46 24 74 72q7 12 12.5 27t8 26t4 33t1.5 30v35.5v32.5v23v231v426h211v-426v-231v-23 q0 -64 -2 -99.5t-15 -90t-40 -100.5q-59 -96 -150 -148q-89 -53 -200 -53q-120 0 -217 63q-97 62 -150 170q-7 15 -13 29.5t-10 32.5t-7.5 29t-5.5 32t-3 28.5t-1.5 31.5t-0.5 28zM12 1294h209h-209zM145 1454q0 43 31.5 75t75.5 32t75 -32t31 -75q0 -44 -31 -75t-75 -31 t-75.5 31t-31.5 75zM436 1446q0 44 31.5 75t75.5 31t75 -31t31 -75t-31 -75.5t-75 -31.5t-75.5 31.5t-31.5 75.5z" />
<glyph unicode="&#xfd;" horiz-adv-x="933" d="M0 1284l346 -729v-414h211v424l338 719h-231l-215 -457l-218 457h-231zM291 1425l43 -96l321 119l-67 149zM557 565l338 719zM588 1597l67 -149z" />
<glyph unicode="&#xff;" horiz-adv-x="933" d="M0 1284h231l218 -457l215 457h231l-338 -719v-424h-211v414zM166 1446q0 43 31 74.5t75 31.5q43 0 75 -31.5t32 -74.5q0 -44 -32 -75.5t-75 -31.5q-44 0 -75 31.5t-31 75.5zM457 1438q0 44 31 75t75 31t75.5 -31t31.5 -75t-31.5 -75.5t-75.5 -31.5t-75 31.5t-31 75.5z M557 565l338 719z" />
<glyph unicode="&#x152;" horiz-adv-x="1718" d="M-10 774q0 252 178 430t430 178q235 0 412 -159v125h626v-209h-417v-271h311v-209h-311v-256h417v-210h-626v133q-83 -76 -189 -118t-223 -42q-252 0 -430 178t-178 430zM199 774q0 -163 116 -282q117 -117 283 -117q164 0 281 117q118 118 118 282q0 163 -118 281 q-119 119 -281 119q-167 0 -283 -119q-116 -116 -116 -281z" />
<glyph unicode="&#x153;" horiz-adv-x="1761" d="M10 774q0 252 178 430t430 178q235 0 412 -159v125h627v-209h-418v-271h311v-209h-311v-256h418v-210h-627v133q-83 -76 -189 -118t-223 -42q-252 0 -430 178t-178 430zM219 774q0 -162 117 -282q117 -117 282 -117q164 0 281 117q119 119 119 282q0 162 -119 281 t-281 119q-166 0 -282 -119q-117 -117 -117 -281z" />
<glyph unicode="&#x178;" horiz-adv-x="933" d="M0 1284h231l218 -457l215 457h231l-338 -719v-424h-211v414zM188 1446q0 43 31.5 74.5t75.5 31.5q43 0 74.5 -31.5t31.5 -74.5q0 -44 -31.5 -75.5t-74.5 -31.5q-44 0 -75.5 31.5t-31.5 75.5zM479 1438q0 44 31.5 75t75.5 31t75 -31t31 -75t-31 -75.5t-75 -31.5 t-75.5 31.5t-31.5 75.5zM557 565l338 719z" />
<glyph unicode="&#x2000;" horiz-adv-x="1024" />
<glyph unicode="&#x2001;" horiz-adv-x="2048" />
<glyph unicode="&#x2002;" horiz-adv-x="1024" />
<glyph unicode="&#x2003;" horiz-adv-x="2048" />
<glyph unicode="&#x2004;" horiz-adv-x="682" />
<glyph unicode="&#x2005;" horiz-adv-x="512" />
<glyph unicode="&#x2006;" horiz-adv-x="341" />
<glyph unicode="&#x2007;" horiz-adv-x="341" />
<glyph unicode="&#x2008;" horiz-adv-x="256" />
<glyph unicode="&#x2009;" horiz-adv-x="409" />
<glyph unicode="&#x200a;" horiz-adv-x="113" />
<glyph unicode="&#x2010;" horiz-adv-x="741" d="M0 403v185h659v-185h-659z" />
<glyph unicode="&#x2011;" horiz-adv-x="741" d="M0 403v185h659v-185h-659z" />
<glyph unicode="&#x2012;" horiz-adv-x="741" d="M0 403v185h659v-185h-659z" />
<glyph unicode="&#x2013;" horiz-adv-x="1106" d="M0 403v185h1024v-185h-1024z" />
<glyph unicode="&#x2014;" horiz-adv-x="2130" d="M0 403v185h2048v-185h-2048z" />
<glyph unicode="&#x201c;" horiz-adv-x="536" d="M4 977l41 315h205l-154 -315h-92zM45 1292h205h-205zM244 977l35 315h202l-147 -315h-90zM279 1292h202h-202z" />
<glyph unicode="&#x201d;" horiz-adv-x="536" d="M4 977l41 315h205l-154 -315h-92zM45 1292h205h-205zM244 977l35 315h202l-147 -315h-90zM279 1292h202h-202z" />
<glyph unicode="&#x202f;" horiz-adv-x="409" />
<glyph unicode="&#x2039;" horiz-adv-x="831" d="M-4 684q16 14 43.5 39.5t42.5 38.5q65 56 185 165t173 156h316q-344 -305 -447 -401q213 -197 453 -414q-2 0 -2 -2h-307q-176 161 -373 340q-82 77 -84 78z" />
<glyph unicode="&#x203a;" horiz-adv-x="831" d="M-4 268q213 197 453 414q-108 99 -449 401h315q61 -53 179.5 -161t179.5 -160q16 -14 44.5 -39t43.5 -39q-17 -14 -45.5 -40.5t-40.5 -37.5l-373 -340h-305q-2 0 -2 2z" />
<glyph unicode="&#x205f;" horiz-adv-x="512" />
<glyph unicode="&#x20ac;" horiz-adv-x="1030" d="M-27 537l56 172h37v53h-84l55 172h29v24q0 164 110 277q111 117 270 117h113q44 0 94 -13q41 -10 90 -36q97 -57 146 -146q53 -95 53 -199h-211q0 54 -24 95q-23 42 -68 67l-39 17q-28 4 -41 4h-113q-67 0 -118 -51q-52 -52 -52 -132v-24h228l-55 -172h-173v-53h220 l-56 -172h-159q12 -47 47 -82q51 -54 118 -54h113q20 0 41 7q9 1 39 14q45 25 68 67q24 43 24 97h211q0 -107 -53 -199q-50 -90 -146 -145q-53 -28 -90 -37q-47 -12 -94 -12h-113q-154 0 -270 116q-90 93 -108 228h-95zM731 586h211h-211z" />
<glyph unicode="&#x25fc;" horiz-adv-x="1280" d="M0 0v1280h1280v-1280h-1280z" />
</font>
</defs>
</svg>
