<?xml version="1.0" encoding="utf-8"?>
<!-- Generator: Adobe Illustrator 16.0.0, SVG Export Plug-In . SVG Version: 6.00 Build 0)  -->
<!DOCTYPE svg PUBLIC "-//W3C//DTD SVG 1.1//EN" "http://www.w3.org/Graphics/SVG/1.1/DTD/svg11.dtd">
<svg version="1.1" id="Layer_1" xmlns="http://www.w3.org/2000/svg" xmlns:xlink="http://www.w3.org/1999/xlink" x="0px" y="0px"
	 width="768px" height="62px" viewBox="0 0 768 62" enable-background="new 0 0 768 62" xml:space="preserve">
<rect width="768" height="62"/>
<path fill="#FFFFFF" d="M49.81,50.882c0-7.679,0-15.359,0-23.039c0-1.024-0.259-1.538-0.778-1.538c-0.284,0-0.537,0.05-0.757,0.148
	c-0.221,0.099-0.38,0.179-0.479,0.239c0,9.176,0,18.353,0,27.528c-3.262,0-6.523,0-9.785,0c0-15.287,0-30.574,0-45.861
	c3.272,1.117,6.544,2.233,9.816,3.35c0.015,2.805,0.03,5.609,0.045,8.414c-0.117-0.624,0.279-1.188,1.189-1.693
	c0.91-0.505,2.048-0.758,3.416-0.758c2.209,0,3.949,0.623,5.216,1.869c1.269,1.245,1.902,3.324,1.902,6.235
	c0,9.481,0,18.963,0,28.445c-3.272-1.117-6.544-2.232-9.816-3.35"/>
<path fill="#FFFFFF" d="M23.612,19.949c-0.01-0.514-0.021-1.026-0.032-1.54c-3.248,0-6.497,0-9.744,0c0,11.938,0,23.875,0,35.812
	c3.262,0,6.524,0,9.785,0c0-9.176,0-18.352,0-27.528c0.099-0.06,0.258-0.14,0.479-0.239c0.22-0.098,0.473-0.148,0.757-0.148
	c0.519,0,0.778,0.513,0.778,1.538c0,7.676,0,15.352,0,23.028c0,0,0.001,0,0.002,0c3.261,1.116,6.521,2.233,9.783,3.35
	c0-9.482,0-18.964,0-28.445c0-2.911-0.634-4.99-1.903-6.235c-1.268-1.246-3.006-1.869-5.216-1.869c-1.367,0-2.505,0.252-3.416,0.758
	C24.062,18.887,23.637,19.394,23.612,19.949z"/>
</svg>
